<svg width="16" height="16" viewBox="0 0 16 16" fill="none" xmlns="http://www.w3.org/2000/svg">
<g clip-path="url(#clip0_212_3635)">
<path d="M12.5124 13.554H3.48686C2.33679 13.5543 1.40448 14.4867 1.40411 15.6367H14.5952C14.5952 14.4863 13.6629 13.554 12.5124 13.554Z" fill="white"/>
<path d="M8.00002 3.83452C5.56961 3.83452 3.83453 5.56996 3.83453 8.11904V12.8282H12.1655V8.11904C12.1655 5.56996 10.4315 3.83452 8.00002 3.83452ZM10.7785 9.05716C10.5781 9.05716 10.4156 8.89458 10.4156 8.69425C10.4156 7.39213 9.77611 6.19707 8.92762 5.91472C8.73709 5.85121 8.63403 5.6458 8.69754 5.45528C8.76104 5.26475 8.96645 5.16168 9.15698 5.22519C10.3067 5.60879 11.1414 7.06769 11.1414 8.69425C11.1414 8.89458 10.9788 9.05716 10.7785 9.05716Z" fill="white"/>
<path d="M2.44565 8.36291H0.362911C0.162584 8.36291 0 8.20032 0 8C0 7.79967 0.162584 7.63708 0.362911 7.63708H2.44565C2.64598 7.63708 2.80856 7.79967 2.80856 8C2.80856 8.20032 2.64598 8.36291 2.44565 8.36291Z" fill="white"/>
<path d="M3.80512 4.34549C3.70895 4.34549 3.61641 4.30739 3.54854 4.23916L2.16005 2.8503C2.02069 2.70623 2.02468 2.47651 2.16912 2.33715C2.30993 2.20142 2.53276 2.20142 2.6732 2.33715L4.0617 3.72601C4.20324 3.8679 4.20324 4.09763 4.0617 4.23916C3.99347 4.30739 3.90129 4.34549 3.80512 4.34549Z" fill="white"/>
<path d="M8 2.80856C7.79967 2.80856 7.63708 2.64598 7.63708 2.44565V0.362911C7.63708 0.162584 7.79967 0 8 0C8.20032 0 8.36291 0.162584 8.36291 0.362911V2.44565C8.36291 2.64598 8.20032 2.80856 8 2.80856Z" fill="white"/>
<path d="M12.2732 4.26674C12.0729 4.26674 11.9103 4.10415 11.9103 3.90383C11.9103 3.80765 11.9484 3.71547 12.0167 3.64725L13.4052 2.25875C13.5467 2.11685 13.7768 2.11685 13.9187 2.25839C14.0606 2.39992 14.0606 2.63001 13.9187 2.77191L12.5298 4.1604C12.462 4.22863 12.3694 4.26674 12.2732 4.26674Z" fill="white"/>
<path d="M15.6371 8.36291H13.5543C13.354 8.36291 13.1914 8.20032 13.1914 8C13.1914 7.79967 13.354 7.63708 13.5543 7.63708H15.6371C15.8374 7.63708 16 7.79967 16 8C16 8.20032 15.8374 8.36291 15.6371 8.36291Z" fill="white"/>
</g>
<defs>
<clipPath id="clip0_212_3635">
<rect width="16" height="16" fill="white"/>
</clipPath>
</defs>
</svg>
