<svg width="231" height="44" viewBox="0 0 231 44" fill="none" xmlns="http://www.w3.org/2000/svg">
<path d="M223.177 31.496C218.881 31.496 215.857 28.424 215.857 24.128C215.857 19.856 218.881 16.76 223.177 16.76C227.473 16.76 230.497 19.832 230.497 24.128C230.497 24.536 230.473 24.992 230.401 25.496H220.105C220.441 27.128 221.569 28.064 223.177 28.064C224.401 28.064 225.409 27.632 225.769 26.96H230.065C229.345 29.648 226.585 31.496 223.177 31.496ZM220.081 22.736H226.321C225.961 21.056 224.857 20.144 223.177 20.144C221.497 20.144 220.441 21.056 220.081 22.736Z" fill="white"/>
<path d="M192.79 31.16V11.6H196.27L203.014 22.544L209.758 11.6H213.238V31.16H208.87V20.432L204.334 27.944H201.694L197.158 20.432V31.16H192.79Z" fill="white"/>
<path d="M170.061 11.168H172.533V19.352C173.109 18.344 174.669 16.928 177.189 16.928C180.429 16.928 182.709 19.256 182.709 22.952V30.992H180.237V23.384C180.237 20.6 178.893 19.088 176.661 19.088C174.261 19.088 172.533 21.344 172.533 23.888V30.992H170.061V11.168Z" fill="white"/>
<path d="M167.511 17.264V19.448H164.463V30.992H161.991V19.448H158.943V17.264H161.991V13.088H164.463V17.264H167.511Z" fill="white"/>
<path d="M155.184 10.928C156.144 10.928 156.84 11.624 156.84 12.56C156.84 13.496 156.144 14.192 155.184 14.192C154.248 14.192 153.552 13.496 153.552 12.56C153.552 11.624 154.248 10.928 155.184 10.928ZM156.432 31.016H153.96V17.264H156.432V31.016Z" fill="white"/>
<path d="M148.925 17.264H151.373L146.525 30.992H144.029L140.405 20.48L136.805 30.992H134.309L129.461 17.264H132.029L135.629 27.92L139.205 17.264H141.701L145.301 27.992L148.925 17.264Z" fill="white"/>
<path d="M113.864 31.496C109.568 31.496 106.544 28.424 106.544 24.128C106.544 19.856 109.568 16.76 113.864 16.76C118.16 16.76 121.184 19.832 121.184 24.128C121.184 24.536 121.16 24.992 121.088 25.496H110.792C111.128 27.128 112.256 28.064 113.864 28.064C115.088 28.064 116.096 27.632 116.456 26.96H120.752C120.032 29.648 117.272 31.496 113.864 31.496ZM110.768 22.736H117.008C116.648 21.056 115.544 20.144 113.864 20.144C112.184 20.144 111.128 21.056 110.768 22.736Z" fill="white"/>
<path d="M105.534 17.096V20.768H102.846V31.16H98.5742V20.768H96.2222V17.096H98.5742V15.704C98.5742 12.944 100.302 10.904 103.35 10.904C104.07 10.904 104.766 10.952 105.294 11.048V14.624C104.982 14.576 104.502 14.576 104.19 14.576C103.35 14.576 102.846 15.104 102.846 15.944V17.096H105.534Z" fill="white"/>
<path d="M85.8218 31.496C81.7898 31.496 78.9818 28.4 78.9818 24.128C78.9818 19.856 81.7898 16.76 85.8218 16.76C87.6698 16.76 89.0138 17.408 89.8538 18.536V17.096H94.1258V31.16H89.8538V29.72C89.0138 30.848 87.6698 31.496 85.8218 31.496ZM86.4938 27.848C88.5818 27.848 89.9258 26.288 89.9258 24.128C89.9258 21.968 88.5818 20.408 86.4938 20.408C84.4538 20.408 83.1578 21.968 83.1578 24.128C83.1578 26.288 84.4538 27.848 86.4938 27.848Z" fill="white"/>
<path d="M69.336 11.12C73.704 11.12 76.968 13.784 77.184 17.504H72.672C72.408 15.8 71.136 14.768 69.048 14.768C67.008 14.768 65.88 15.584 65.88 16.76C65.88 18.224 67.392 18.728 71.208 19.52C75.72 20.456 77.256 22.688 77.256 25.616C77.256 29.36 73.728 31.64 69.36 31.64C64.536 31.64 61.008 29.024 60.816 24.848H65.304C65.544 26.72 67.176 27.968 69.672 27.968C71.448 27.968 72.768 27.08 72.768 25.808C72.768 24.248 71.448 23.624 67.968 22.976C63.72 22.184 61.416 20.432 61.416 16.76C61.416 13.232 64.92 11.12 69.336 11.12Z" fill="white"/>
<path d="M39.9997 5.10567C39.9997 5.10567 33.8882 5.49365 27.9544 3.84254C23.1277 2.49969 20 0 20 0C20 0 16.8723 2.49969 12.0456 3.84254C6.1122 5.49365 0.000269741 5.10567 0.000269741 5.10567C0.000269741 5.10567 -0.108682 18.4992 4.05274 27.2233C10.4587 40.6523 20 43.2826 20 43.2826C20 43.2826 29.5412 40.6523 35.9473 27.2233C40.1087 18.4992 39.9997 5.10567 39.9997 5.10567Z" fill="url(#paint0_linear_212_3068)"/>
<path d="M21.1507 24.3362C13.0471 17.8309 6.94667 21.0942 3.17499 25.1577C3.44427 25.8681 3.73613 26.5595 4.0528 27.2234C10.4588 40.6523 20.0001 43.2827 20.0001 43.2827C20.0001 43.2827 29.5413 40.6523 35.9473 27.2234C36.4354 26.1999 36.865 25.1121 37.2428 23.9889C32.6743 26.9922 26.744 28.8262 21.1507 24.3362Z" fill="url(#paint1_linear_212_3068)"/>
<path d="M19.6121 23.2C20.1166 23.5401 20.6294 23.9175 21.1507 24.336C26.744 28.8261 32.6744 26.992 37.2428 23.9888C37.2437 23.9857 37.245 23.9826 37.2459 23.979C30.3067 17.7289 23.7231 20.2455 19.6121 23.2Z" fill="url(#paint2_linear_212_3068)"/>
<defs>
<linearGradient id="paint0_linear_212_3068" x1="20" y1="-0.130211" x2="20" y2="23.2842" gradientUnits="userSpaceOnUse">
<stop stop-color="#B56BFF"/>
<stop offset="0.5" stop-color="#7A3DD3"/>
<stop offset="1" stop-color="#3C0CA6"/>
</linearGradient>
<linearGradient id="paint1_linear_212_3068" x1="20.2091" y1="20.7106" x2="20.2091" y2="48.659" gradientUnits="userSpaceOnUse">
<stop offset="0.08" stop-color="#00F7FF"/>
<stop offset="0.8" stop-color="#008F91"/>
</linearGradient>
<linearGradient id="paint2_linear_212_3068" x1="28.656" y1="18.7077" x2="28.2773" y2="26.8547" gradientUnits="userSpaceOnUse">
<stop stop-color="#00E1FF"/>
<stop offset="1" stop-color="#0090A6"/>
</linearGradient>
</defs>
</svg>
