<svg width="32" height="32" viewBox="0 0 32 32" fill="none" xmlns="http://www.w3.org/2000/svg">
<g clip-path="url(#clip0_212_3111)">
<path d="M27.1076 13.0169C27.1076 17.5101 23.4651 21.1525 18.972 21.1525C14.4786 21.1525 10.8364 17.5101 10.8364 13.0169C10.8364 8.52383 14.4786 4.88135 18.972 4.88135C23.4651 4.88135 27.1076 8.52383 27.1076 13.0169Z" fill="#FDD020"/>
<path d="M18.9719 3.25424C18.6722 3.25424 18.4296 3.01139 18.4296 2.71186V0.542373C18.4296 0.24285 18.6722 0 18.9719 0C19.2715 0 19.5143 0.24285 19.5143 0.542373V2.71186C19.5143 3.01139 19.2715 3.25424 18.9719 3.25424Z" fill="#FDD020"/>
<path d="M31.4465 13.5593H29.277C28.9772 13.5593 28.7346 13.3164 28.7346 13.0169C28.7346 12.7174 28.9772 12.4745 29.277 12.4745H31.4465C31.746 12.4745 31.9889 12.7174 31.9889 13.0169C31.9889 13.3164 31.746 13.5593 31.4465 13.5593Z" fill="#FDD020"/>
<path d="M25.4804 20.0678C25.0837 20.0678 24.6878 20.1075 24.299 20.1859C24.0059 18.7227 23.058 17.4746 21.7273 16.799C20.3967 16.1234 18.8297 16.0951 17.4754 16.7219C16.2498 13.3458 12.5194 11.6027 9.1433 12.8284C5.76724 14.0543 4.02413 17.7847 5.24976 21.1607C2.2924 21.2542 -0.04367 23.7018 0.000556691 26.6605C0.0450482 29.6189 2.45368 31.9952 5.41263 32H25.4804C28.7752 32 31.4465 29.3289 31.4465 26.0339C31.4465 22.7389 28.7752 20.0678 25.4804 20.0678Z" fill="#A3D4F7"/>
<path d="M11.3787 5.4237L9.20917 3.25421L11.3787 5.4237Z" fill="#FDD020"/>
<path d="M11.3787 5.96607C11.2346 5.96607 11.0969 5.90887 10.9952 5.80717L8.82572 3.63768C8.68456 3.50156 8.62816 3.29976 8.67768 3.11014C8.72747 2.92052 8.87551 2.77248 9.06513 2.72296C9.25474 2.67317 9.45628 2.72984 9.59267 2.87073L11.7622 5.04023C11.9171 5.19542 11.9634 5.42873 11.8795 5.63133C11.7955 5.83392 11.598 5.96607 11.3787 5.96607Z" fill="#FDD020"/>
<path d="M26.5651 5.4237L28.7346 3.25421L26.5651 5.4237Z" fill="#FDD020"/>
<path d="M26.5651 5.96607C26.3456 5.96607 26.148 5.83392 26.0641 5.63133C25.9801 5.42873 26.0265 5.19542 26.1817 5.04023L28.3512 2.87073C28.4873 2.72984 28.6888 2.67317 28.8784 2.72296C29.0681 2.77248 29.2164 2.92052 29.2659 3.11014C29.3154 3.29976 29.259 3.50156 29.1181 3.63768L26.9486 5.80717C26.8469 5.90887 26.7089 5.96607 26.5651 5.96607Z" fill="#FDD020"/>
</g>
<defs>
<clipPath id="clip0_212_3111">
<rect width="32" height="32" fill="white"/>
</clipPath>
</defs>
</svg>
