<svg width="32" height="32" viewBox="0 0 32 32" fill="none" xmlns="http://www.w3.org/2000/svg">
<path d="M23.3733 16.6132V14.4405C23.3733 10.9843 20.996 8.08381 17.7876 7.28376V5.07562C17.7876 4.08689 16.986 3.28534 15.9973 3.28534C15.0086 3.28534 14.207 4.08689 14.207 5.07562V7.28376C10.9986 8.08381 8.62133 10.9843 8.62133 14.4405V16.6132C8.62133 18.936 7.69854 21.1638 6.05606 22.8063C5.33408 23.5283 5.1181 24.6141 5.50881 25.5574C5.89952 26.5007 6.82001 27.1158 7.84105 27.1158H12.2916C12.2916 29.1623 13.9506 30.8214 15.9972 30.8214C18.0438 30.8214 19.7029 29.1623 19.7029 27.1158H24.1534C25.1744 27.1158 26.0949 26.5007 26.4857 25.5574C26.8764 24.6141 26.6604 23.5283 25.9384 22.8063C24.296 21.1638 23.3733 18.936 23.3733 16.6132Z" fill="#3290FF"/>
<path d="M6.16901 16.6009C6.73059 16.4096 7.03079 15.7993 6.83944 15.2377C6.26505 13.5513 6.3817 11.742 7.16807 10.1433C7.95436 8.54457 9.31626 7.3478 11.0027 6.77341C11.5643 6.58214 11.8645 5.97186 11.6731 5.41021C11.4819 4.84864 10.8716 4.54844 10.31 4.73979C8.08032 5.49923 6.27987 7.08148 5.24029 9.19509C4.2007 11.3088 4.04638 13.7007 4.80589 15.9304C4.99717 16.4921 5.60758 16.7921 6.16901 16.6009Z" fill="#3290FF"/>
<path d="M9.31506 3.09136C9.87664 2.90009 10.1768 2.28982 9.98556 1.72824C9.79429 1.16666 9.18394 0.866541 8.62237 1.05781C1.98112 3.3198 -1.58162 10.5632 0.680517 17.2045C0.871792 17.7662 1.48221 18.0662 2.04364 17.875C2.60522 17.6837 2.90541 17.0734 2.71407 16.5118C1.80331 13.8379 1.98836 10.9693 3.23511 8.43451C4.48187 5.89975 6.64109 4.00212 9.31506 3.09136Z" fill="#3290FF"/>
<path d="M21.6843 4.73981C21.1226 4.54839 20.5125 4.84873 20.3212 5.41024C20.1299 5.97181 20.4301 6.58208 20.9916 6.77343C24.4731 7.95924 26.3407 11.7563 25.1549 15.2378C24.9636 15.7993 25.2638 16.4096 25.8253 16.6009C26.3865 16.7922 26.9971 16.4922 27.1885 15.9305C28.7563 11.3276 26.2872 6.30753 21.6843 4.73981Z" fill="#3290FF"/>
<path d="M30.6873 7.4863C29.1872 4.43658 26.5893 2.15354 23.3723 1.05774C22.8105 0.866249 22.2004 1.16666 22.0091 1.72816C21.8179 2.28974 22.1181 2.90001 22.6796 3.09129C25.3535 4.00211 27.5128 5.89967 28.7595 8.43443C30.0063 10.9693 30.1913 13.8378 29.2805 16.5118C29.0892 17.0733 29.3894 17.6836 29.9509 17.8749C30.5121 18.0662 31.1227 17.7663 31.314 17.2045C32.4099 13.9873 32.1873 10.536 30.6873 7.4863Z" fill="#3290FF"/>
</svg>
