<svg width="32" height="32" viewBox="0 0 32 32" fill="none" xmlns="http://www.w3.org/2000/svg">
<path d="M24.2927 13.5947H19.4147C18.9626 13.5973 18.5299 13.778 18.2102 14.0976C17.8906 14.4172 17.7099 14.85 17.7073 15.302V26.0338C17.7099 26.227 17.7878 26.4117 17.9244 26.5484C18.0611 26.685 18.2458 26.7629 18.439 26.7655H24.2927C24.7447 26.7629 25.1775 26.5822 25.4971 26.2626C25.8168 25.9429 25.9975 25.5102 26 25.0581V15.302C25.9975 14.85 25.8168 14.4172 25.4971 14.0976C25.1775 13.778 24.7447 13.5973 24.2927 13.5947ZM22.8293 23.8386H20.8781C20.684 23.8386 20.4979 23.7615 20.3607 23.6243C20.2235 23.4871 20.1464 23.301 20.1464 23.1069C20.1464 22.9129 20.2235 22.7267 20.3607 22.5895C20.4979 22.4523 20.684 22.3752 20.8781 22.3752H22.8293C23.0233 22.3752 23.2095 22.4523 23.3467 22.5895C23.4839 22.7267 23.561 22.9129 23.561 23.1069C23.561 23.301 23.4839 23.4871 23.3467 23.6243C23.2095 23.7615 23.0233 23.8386 22.8293 23.8386ZM22.8293 20.9118H20.8781C20.684 20.9118 20.4979 20.8347 20.3607 20.6975C20.2235 20.5603 20.1464 20.3742 20.1464 20.1801C20.1464 19.986 20.2235 19.7999 20.3607 19.6627C20.4979 19.5255 20.684 19.4484 20.8781 19.4484H22.8293C23.0233 19.4484 23.2095 19.5255 23.3467 19.6627C23.4839 19.7999 23.561 19.986 23.561 20.1801C23.561 20.3742 23.4839 20.5603 23.3467 20.6975C23.2095 20.8347 23.0233 20.9118 22.8293 20.9118ZM22.8293 17.985H20.8781C20.684 17.985 20.4979 17.9079 20.3607 17.7707C20.2235 17.6334 20.1464 17.4473 20.1464 17.2533C20.1464 17.0592 20.2235 16.8731 20.3607 16.7359C20.4979 16.5986 20.684 16.5216 20.8781 16.5216H22.8293C23.0233 16.5216 23.2095 16.5986 23.3467 16.7359C23.4839 16.8731 23.561 17.0592 23.561 17.2533C23.561 17.4473 23.4839 17.6334 23.3467 17.7707C23.2095 17.9079 23.0233 17.985 22.8293 17.985Z" fill="#01ECF3"/>
<path d="M10.3903 22.863H13.8049V26.7655H10.3903V22.863Z" fill="#01ECF3"/>
<path d="M17.0732 9.50693L7.63902 6.07278C7.45383 6.00634 7.25547 5.98496 7.06037 6.01041C6.86527 6.03586 6.67903 6.1074 6.51707 6.21912C6.36078 6.33016 6.23262 6.47621 6.14283 6.64561C6.05305 6.81501 6.00414 7.00306 6 7.19473V25.0581C6.00256 25.5102 6.18326 25.9429 6.50289 26.2626C6.82252 26.5822 7.2553 26.7629 7.70732 26.7655H8.92683V22.6191C8.92683 22.2957 9.05531 21.9855 9.28402 21.7568C9.51272 21.5281 9.82291 21.3996 10.1463 21.3996H14.0488C14.3722 21.3996 14.6824 21.5281 14.9111 21.7568C15.1398 21.9855 15.2683 22.2957 15.2683 22.6191V26.7655H17.4634C17.6567 26.7629 17.8413 26.685 17.978 26.5484C18.1147 26.4117 18.1926 26.227 18.1951 26.0338V11.1069C18.1943 10.7575 18.0863 10.4167 17.8857 10.1305C17.6851 9.84441 17.4015 9.62674 17.0732 9.50693ZM10.1463 11.6435H12.5854C12.7794 11.6435 12.9655 11.7206 13.1028 11.8578C13.24 11.995 13.3171 12.1812 13.3171 12.3752C13.3171 12.5693 13.24 12.7554 13.1028 12.8926C12.9655 13.0298 12.7794 13.1069 12.5854 13.1069H10.1463C9.95228 13.1069 9.76617 13.0298 9.62895 12.8926C9.49172 12.7554 9.41463 12.5693 9.41463 12.3752C9.41463 12.1812 9.49172 11.995 9.62895 11.8578C9.76617 11.7206 9.95228 11.6435 10.1463 11.6435ZM14.0488 18.9606H10.1463C9.95228 18.9606 9.76617 18.8835 9.62895 18.7463C9.49172 18.6091 9.41463 18.4229 9.41463 18.2289C9.41463 18.0348 9.49172 17.8487 9.62895 17.7115C9.76617 17.5743 9.95228 17.4972 10.1463 17.4972H14.0488C14.2428 17.4972 14.429 17.5743 14.5662 17.7115C14.7034 17.8487 14.7805 18.0348 14.7805 18.2289C14.7805 18.4229 14.7034 18.6091 14.5662 18.7463C14.429 18.8835 14.2428 18.9606 14.0488 18.9606ZM14.0488 16.0338H10.1463C9.95228 16.0338 9.76617 15.9567 9.62895 15.8194C9.49172 15.6822 9.41463 15.4961 9.41463 15.3021C9.41463 15.108 9.49172 14.9219 9.62895 14.7847C9.76617 14.6474 9.95228 14.5703 10.1463 14.5703H14.0488C14.2428 14.5703 14.429 14.6474 14.5662 14.7847C14.7034 14.9219 14.7805 15.108 14.7805 15.3021C14.7805 15.4961 14.7034 15.6822 14.5662 15.8194C14.429 15.9567 14.2428 16.0338 14.0488 16.0338Z" fill="#01ECF3"/>
</svg>
