<svg width="32" height="32" viewBox="0 0 32 32" fill="none" xmlns="http://www.w3.org/2000/svg">
<path d="M31.0769 3H0.923063C0.413312 3 0 3.41331 0 3.92306V9.15381H32V3.92306C32 3.41331 31.5867 3 31.0769 3ZM23.3846 7.92306H22.1539C21.6441 7.92306 21.2308 7.50975 21.2308 7C21.2308 6.49025 21.6441 6.07694 22.1539 6.07694H23.3846C23.8944 6.07694 24.3077 6.49025 24.3077 7C24.3077 7.50975 23.8944 7.92306 23.3846 7.92306ZM27.0769 7.92306H25.8462C25.3364 7.92306 24.9231 7.50975 24.9231 7C24.9231 6.49025 25.3364 6.07694 25.8462 6.07694H27.0769C27.5868 6.07694 28 6.49025 28 7C28 7.50975 27.5867 7.92306 27.0769 7.92306Z" fill="#3290FF"/>
<path d="M16 14.6924C13.7944 14.6924 12 16.4868 12 18.6924C12 20.898 13.7944 22.6924 16 22.6924C18.2056 22.6924 20 20.898 20 18.6924C20 16.4868 18.2056 14.6924 16 14.6924ZM16 20.6001C14.9481 20.6001 14.0923 19.7443 14.0923 18.6924C14.0923 17.6405 14.9481 16.7847 16 16.7847C17.0519 16.7847 17.9077 17.6405 17.9077 18.6924C17.9077 19.7443 17.0519 20.6001 16 20.6001Z" fill="#3290FF"/>
<path d="M2.76923 11V15C2.76923 18.5341 4.14548 21.8566 6.64441 24.3556C9.14335 26.8545 12.4659 28.2308 16 28.2308C19.534 28.2308 22.8566 26.8545 25.3555 24.3556C27.8545 21.8566 29.2307 18.5341 29.2307 15V11H2.76923ZM16 24.5384C12.7764 24.5384 10.1539 21.9159 10.1539 18.6923C10.1539 15.4687 12.7764 12.8462 16 12.8462C19.2235 12.8462 21.8461 15.4687 21.8461 18.6923C21.8461 21.9159 19.2235 24.5384 16 24.5384Z" fill="#3290FF"/>
</svg>
