<svg width="32" height="32" viewBox="0 0 32 32" fill="none" xmlns="http://www.w3.org/2000/svg">
<path d="M28 22.8485C28 23.111 27.8851 23.3628 27.6805 23.5485C27.4759 23.7341 27.1984 23.8384 26.9091 23.8384H13.8182C13.5289 23.8384 13.2514 23.7341 13.0468 23.5485C12.8422 23.3628 12.7273 23.111 12.7273 22.8485C12.7273 21.2733 13.4169 19.7626 14.6444 18.6487C15.8719 17.5348 17.5368 16.9091 19.2727 16.9091H21.4545C23.1905 16.9091 24.8554 17.5348 26.0829 18.6487C27.3104 19.7626 28 21.2733 28 22.8485ZM20.3636 8C19.5006 8 18.6569 8.23223 17.9393 8.66731C17.2217 9.1024 16.6624 9.7208 16.3322 10.4443C16.0019 11.1678 15.9155 11.964 16.0838 12.7321C16.2522 13.5002 16.6678 14.2057 17.2781 14.7595C17.8883 15.3132 18.6659 15.6903 19.5123 15.8431C20.3588 15.9959 21.2362 15.9175 22.0335 15.6178C22.8309 15.3181 23.5124 14.8106 23.9919 14.1594C24.4713 13.5083 24.7273 12.7427 24.7273 11.9596C24.7273 10.9094 24.2675 9.90231 23.4492 9.15974C22.6309 8.41717 21.5209 8 20.3636 8ZM10.5455 8C9.68241 8 8.83874 8.23223 8.12115 8.66731C7.40355 9.1024 6.84425 9.7208 6.51398 10.4443C6.18371 11.1678 6.09729 11.964 6.26566 12.7321C6.43404 13.5002 6.84963 14.2057 7.4599 14.7595C8.07016 15.3132 8.84769 15.6903 9.69415 15.8431C10.5406 15.9959 11.418 15.9175 12.2153 15.6178C13.0127 15.3181 13.6942 14.8106 14.1737 14.1594C14.6532 13.5083 14.9091 12.7427 14.9091 11.9596C14.9091 10.9094 14.4494 9.90231 13.631 9.15974C12.8127 8.41717 11.7028 8 10.5455 8ZM10.5455 22.8485C10.5438 21.8087 10.7696 20.779 11.2096 19.8189C11.6497 18.8589 12.2953 17.9876 13.1091 17.2556C12.4431 17.0274 11.7373 16.91 11.0255 16.9091H10.0655C8.45768 16.9117 6.91658 17.4924 5.77972 18.524C4.64285 19.5556 4.00288 20.954 4 22.4129V22.8485C4 23.111 4.11493 23.3628 4.31952 23.5485C4.5241 23.7341 4.80158 23.8384 5.09091 23.8384H10.7418C10.6148 23.5209 10.5484 23.1862 10.5455 22.8485Z" fill="#01ECF3"/>
</svg>
