<svg width="20" height="20" viewBox="0 0 20 20" fill="none" xmlns="http://www.w3.org/2000/svg">
<path fill-rule="evenodd" clip-rule="evenodd" d="M0 10C0 4.47715 4.47715 0 10 0C15.5228 0 20 4.47715 20 10C20 15.5228 15.5228 20 10 20C4.47715 20 0 15.5228 0 10ZM14.6402 6.2318C15.0645 6.58537 15.1218 7.21593 14.7682 7.64021L9.7682 13.6402C9.5937 13.8497 9.3411 13.9788 9.0691 13.9976C8.797 14.0165 8.5291 13.9234 8.3273 13.74L5.32733 11.0127C4.91868 10.6412 4.88856 10.0087 5.26007 9.6001C5.63157 9.1914 6.26402 9.1613 6.67268 9.5328L8.9002 11.5578L13.2318 6.35984C13.5854 5.93556 14.2159 5.87824 14.6402 6.2318Z" fill="#ADFF00"/>
</svg>
