<svg width="18" height="18" viewBox="0 0 18 18" fill="none" xmlns="http://www.w3.org/2000/svg">
<path d="M14.6348 0H3.36522C2.47296 0.00082885 1.61749 0.355644 0.986565 0.986565C0.355644 1.61749 0.00082885 2.47296 0 3.36522V14.6348C0.00082885 15.527 0.355644 16.3825 0.986565 17.0134C1.61749 17.6444 2.47296 17.9992 3.36522 18H14.6348C15.527 17.9992 16.3825 17.6444 17.0134 17.0134C17.6444 16.3825 17.9992 15.527 18 14.6348V3.36522C17.9992 2.47296 17.6444 1.61749 17.0134 0.986565C16.3825 0.355644 15.527 0.00082885 14.6348 0ZM7.68522 12.7127C7.9351 12.7268 8.1701 12.8361 8.342 13.018C8.51391 13.1999 8.60968 13.4407 8.60968 13.691C8.60968 13.9412 8.51391 14.182 8.342 14.3639C8.1701 14.5458 7.9351 14.6551 7.68522 14.6692H4.36696C4.23851 14.6693 4.11134 14.6436 3.99303 14.5936C3.87472 14.5436 3.76767 14.4703 3.67826 14.3781C3.49896 14.196 3.39786 13.9512 3.39652 13.6957V10.3837C3.41066 10.1338 3.51989 9.89877 3.7018 9.72687C3.88371 9.55496 4.1245 9.45919 4.37478 9.45919C4.62506 9.45919 4.86586 9.55496 5.04777 9.72687C5.22967 9.89877 5.3389 10.1338 5.35304 10.3837V11.4104L7.2313 9.62609C7.42179 9.46155 7.6683 9.37664 7.91971 9.38895C8.17112 9.40126 8.40814 9.50986 8.58165 9.69221C8.75515 9.87457 8.85182 10.1167 8.85161 10.3684C8.8514 10.6201 8.75433 10.8621 8.58052 11.0442L6.82435 12.7127H7.68522ZM14.6348 7.65704C14.6206 7.90693 14.5114 8.14192 14.3295 8.31383C14.1476 8.48573 13.9068 8.58151 13.6565 8.58151C13.4062 8.58151 13.1654 8.48573 12.9835 8.31383C12.8016 8.14192 12.6924 7.90693 12.6783 7.65704V6.63026L10.8 8.41461C10.6188 8.58792 10.3777 8.68439 10.127 8.68383C9.93291 8.68048 9.74416 8.61996 9.58435 8.50982C9.42455 8.39969 9.3008 8.24485 9.22861 8.06469C9.15641 7.88454 9.13899 7.68709 9.17851 7.49708C9.21803 7.30707 9.31274 7.13295 9.45078 6.99652L11.207 5.328H10.3586C10.1087 5.31386 9.87373 5.20463 9.70182 5.02272C9.52992 4.84082 9.43414 4.60002 9.43414 4.34974C9.43414 4.09946 9.52992 3.85866 9.70182 3.67675C9.87373 3.49485 10.1087 3.38562 10.3586 3.37148H13.6706C13.9301 3.37584 14.1779 3.48012 14.3624 3.66261C14.5421 3.85003 14.6401 4.10111 14.6348 4.3607V7.65704Z" fill="url(#paint0_linear_212_3664)"/>
<defs>
<linearGradient id="paint0_linear_212_3664" x1="9.00012" y1="0.0538692" x2="9.00012" y2="22.2745" gradientUnits="userSpaceOnUse">
<stop offset="0.08" stop-color="#00F7FF"/>
<stop offset="0.8" stop-color="#008F91"/>
</linearGradient>
</defs>
</svg>
