<svg width="32" height="32" viewBox="0 0 32 32" fill="none" xmlns="http://www.w3.org/2000/svg">
<path d="M5.8125 2.84025V3.625H11.4375V2.84025C11.8337 2.73069 12.125 2.36856 12.125 1.9375C12.125 1.41975 11.7052 1 11.1875 1H6.0625C5.54475 1 5.125 1.41975 5.125 1.9375C5.125 2.36856 5.41631 2.73075 5.8125 2.84025Z" fill="#3290FF"/>
<path d="M8.65623 30.3125C10.08 30.3125 11.277 29.3256 11.6007 28H5.71179C6.03542 29.3255 7.23242 30.3125 8.65623 30.3125Z" fill="#3290FF"/>
<path d="M31.0625 5.5H4.6875C4.16975 5.5 3.75 5.91975 3.75 6.4375V20.5H32V6.4375C32 5.91975 31.5802 5.5 31.0625 5.5ZM13.5387 14.0488L12.2835 17.5783C12.1469 17.9623 11.7857 18.2019 11.4002 18.2019C11.2959 18.2019 11.1899 18.1844 11.0861 18.1475C10.5982 17.974 10.3434 17.4379 10.5169 16.9501L11.327 14.6722H10.0175C9.70031 14.6722 9.40456 14.5118 9.23162 14.2459C9.05862 13.9799 9.03194 13.6446 9.1605 13.3546L10.5949 10.1199C10.8047 9.64656 11.3587 9.43313 11.8319 9.64294C12.3052 9.85281 12.5188 10.4067 12.3089 10.88L11.4587 12.7971H12.6554C12.96 12.7971 13.2456 12.9452 13.4214 13.1941C13.5971 13.443 13.6407 13.7618 13.5387 14.0488ZM27.3125 18.625H18.8125C18.2948 18.625 17.875 18.2052 17.875 17.6875C17.875 17.1698 18.2948 16.75 18.8125 16.75H27.3125C27.8302 16.75 28.25 17.1698 28.25 17.6875C28.25 18.2052 27.8302 18.625 27.3125 18.625ZM27.3125 14.8749H18.8125C18.2948 14.8749 17.875 14.4552 17.875 13.9374C17.875 13.4197 18.2948 12.9999 18.8125 12.9999H27.3125C27.8302 12.9999 28.25 13.4197 28.25 13.9374C28.25 14.4552 27.8302 14.8749 27.3125 14.8749ZM27.3125 11.125H18.8125C18.2948 11.125 17.875 10.7052 17.875 10.1875C17.875 9.66975 18.2948 9.25 18.8125 9.25H27.3125C27.8302 9.25 28.25 9.66975 28.25 10.1875C28.25 10.7052 27.8302 11.125 27.3125 11.125Z" fill="#3290FF"/>
<path d="M3.75 25.1875C3.75 25.7053 4.16975 26.125 4.6875 26.125H31.0625C31.5802 26.125 32 25.7053 32 25.1875V22.375H3.75V25.1875Z" fill="#3290FF"/>
<path d="M27.0937 30.3125C28.5175 30.3125 29.7145 29.3256 30.0382 28H24.1493C24.4729 29.3255 25.6699 30.3125 27.0937 30.3125Z" fill="#3290FF"/>
<path d="M0 13.0313V20.2813C0 21.3813 0.816375 22.294 1.875 22.4461V9.71358C0.752187 10.393 0 11.6258 0 13.0313Z" fill="#3290FF"/>
</svg>
