<svg width="24" height="24" viewBox="0 0 24 24" fill="none" xmlns="http://www.w3.org/2000/svg">
<rect width="24" height="24" rx="8" fill="url(#paint0_linear_865_3673)"/>
<path d="M7.2 9.39998H16.8C17.1183 9.39998 17.4235 9.27356 17.6485 9.04851C17.8736 8.82347 18 8.51824 18 8.19998C18 7.88172 17.8736 7.5765 17.6485 7.35146C17.4235 7.12641 17.1183 6.99998 16.8 6.99998H7.2C6.88174 6.99998 6.57652 7.12641 6.35147 7.35146C6.12643 7.5765 6 7.88172 6 8.19998C6 8.51824 6.12643 8.82347 6.35147 9.04851C6.57652 9.27356 6.88174 9.39998 7.2 9.39998Z" fill="#EDEEED"/>
<path d="M16.8 11H7.2C6.88174 11 6.57652 11.1265 6.35147 11.3515C6.12643 11.5766 6 11.8818 6 12.2C6 12.5183 6.12643 12.8235 6.35147 13.0486C6.57652 13.2736 6.88174 13.4 7.2 13.4H16.8C17.1183 13.4 17.4235 13.2736 17.6485 13.0486C17.8736 12.8235 18 12.5183 18 12.2C18 11.8818 17.8736 11.5766 17.6485 11.3515C17.4235 11.1265 17.1183 11 16.8 11Z" fill="#EDEEED"/>
<path d="M16.8 15H7.2C6.88174 15 6.57652 15.1265 6.35147 15.3515C6.12643 15.5765 6 15.8818 6 16.2C6 16.5183 6.12643 16.8235 6.35147 17.0486C6.57652 17.2736 6.88174 17.4 7.2 17.4H16.8C17.1183 17.4 17.4235 17.2736 17.6485 17.0486C17.8736 16.8235 18 16.5183 18 16.2C18 15.8818 17.8736 15.5765 17.6485 15.3515C17.4235 15.1265 17.1183 15 16.8 15Z" fill="#EDEEED"/>
<defs>
<linearGradient id="paint0_linear_865_3673" x1="12" y1="-0.0722011" x2="12" y2="12.911" gradientUnits="userSpaceOnUse">
<stop stop-color="#B56BFF"/>
<stop offset="0.5" stop-color="#7A3DD3"/>
<stop offset="1" stop-color="#3C0CA6"/>
</linearGradient>
</defs>
</svg>
