<svg width="24" height="24" viewBox="0 0 24 24" fill="none" xmlns="http://www.w3.org/2000/svg">
<rect width="24" height="24" rx="8" fill="url(#paint0_linear_865_3675)"/>
<g clip-path="url(#clip0_865_3675)">
<path d="M11.1819 17.997C8.471 17.6581 6.34139 15.5284 6.00283 12.8182C5.97629 12.6088 6.13989 12.423 6.3517 12.423H7.77293C7.94461 12.423 8.09088 12.5469 8.11974 12.7159C8.39306 14.3345 9.66457 15.6064 11.2843 15.8801C11.4532 15.9089 11.5772 16.0552 11.5772 16.2269V17.6481C11.5772 17.8572 11.3959 18.0224 11.1819 17.997Z" fill="white"/>
<path d="M7.77317 11.6261H6.35194C6.14001 11.6261 5.97656 11.4402 6.00307 11.2309C6.37529 8.24899 8.92314 6.00024 11.929 6.00024C13.2644 6.00024 14.5304 6.43564 15.5904 7.2594C15.759 7.39093 15.7716 7.63755 15.6234 7.78579L14.6187 8.79085C14.4971 8.91274 14.3062 8.92786 14.1661 8.82861C13.5065 8.35853 12.7328 8.10994 11.929 8.10994C10.0374 8.10994 8.43517 9.46558 8.11996 11.3332C8.09113 11.5021 7.94485 11.6261 7.77317 11.6261Z" fill="white"/>
<path d="M12.3741 17.6484V16.2272C12.3741 16.0555 12.4981 15.9093 12.667 15.8804C14.5347 15.5652 15.8903 13.963 15.8903 12.0714C15.8903 11.2675 15.6417 10.4939 15.1716 9.83426C15.072 9.6945 15.0878 9.5029 15.2094 9.38168L16.2144 8.37698C16.3608 8.23063 16.6082 8.23992 16.7408 8.40993C17.5646 9.46994 18 10.736 18 12.0713C18 15.0772 15.7512 17.6251 12.7694 17.9973C12.5531 18.0231 12.3741 17.8551 12.3741 17.6484Z" fill="white"/>
<path d="M10.5926 10.5946C10.5926 10.4004 10.4352 10.243 10.241 10.243H9.53777C9.34359 10.243 9.18616 10.4004 9.18616 10.5946V13.4075C9.18616 13.6017 9.34359 13.7591 9.53777 13.7591H10.241C10.4352 13.7591 10.5926 13.6017 10.5926 13.4075V10.5946Z" fill="white"/>
<path d="M12.7023 13.4075V9.89135C12.7023 9.69716 12.5449 9.53973 12.3507 9.53973H11.6475C11.4533 9.53973 11.2958 9.69716 11.2958 9.89135V13.4075C11.2958 13.6017 11.4533 13.7591 11.6475 13.7591H12.3507C12.5449 13.7591 12.7023 13.6017 12.7023 13.4075Z" fill="white"/>
<path d="M14.812 13.4075V12.001C14.812 11.8068 14.6545 11.6494 14.4604 11.6494H13.7571C13.5629 11.6494 13.4055 11.8068 13.4055 12.001V13.4075C13.4055 13.6017 13.5629 13.7591 13.7571 13.7591H14.4604C14.6546 13.7591 14.812 13.6017 14.812 13.4075Z" fill="white"/>
</g>
<defs>
<linearGradient id="paint0_linear_865_3675" x1="12" y1="-0.0722011" x2="12" y2="12.911" gradientUnits="userSpaceOnUse">
<stop stop-color="#B56BFF"/>
<stop offset="0.5" stop-color="#7A3DD3"/>
<stop offset="1" stop-color="#3C0CA6"/>
</linearGradient>
<clipPath id="clip0_865_3675">
<rect width="12" height="12" fill="white" transform="translate(6 6)"/>
</clipPath>
</defs>
</svg>
