<svg width="22" height="20" viewBox="0 0 22 20" fill="none" xmlns="http://www.w3.org/2000/svg">
<path fill-rule="evenodd" clip-rule="evenodd" d="M1.33334 0C0.596961 0 0 0.596961 0 1.33334C0 2.06971 0.596961 2.66667 1.33334 2.66667V13.3334C1.33334 14.8062 2.52724 16 4.00001 16H7.44773L5.72386 17.7239C5.20317 18.2446 5.20317 19.0888 5.72386 19.6095C6.24457 20.1302 7.08879 20.1302 7.60949 19.6095L10.6667 16.5523L13.7239 19.6095C14.2446 20.1302 15.0888 20.1302 15.6095 19.6095C16.1302 19.0888 16.1302 18.2446 15.6095 17.7239L13.8856 16H17.3334C18.8062 16 20 14.8062 20 13.3334V2.66667C20.7364 2.66667 21.3334 2.06971 21.3334 1.33334C21.3334 0.596961 20.7364 0 20 0H1.33334ZM16 5.33334C16 4.59697 15.4031 4.00001 14.6667 4.00001C13.9303 4.00001 13.3334 4.59697 13.3334 5.33334V10.6667C13.3334 11.4031 13.9303 12 14.6667 12C15.4031 12 16 11.4031 16 10.6667V5.33334ZM12 6.66668C12 5.9303 11.4031 5.33334 10.6667 5.33334C9.93031 5.33334 9.33335 5.9303 9.33335 6.66668V10.6667C9.33335 11.4031 9.93031 12 10.6667 12C11.4031 12 12 11.4031 12 10.6667V6.66668ZM8.00001 8.00001C8.00001 7.26364 7.40305 6.66668 6.66668 6.66668C5.9303 6.66668 5.33334 7.26364 5.33334 8.00001V10.6667C5.33334 11.4031 5.9303 12 6.66668 12C7.40305 12 8.00001 11.4031 8.00001 10.6667V8.00001Z" fill="white"/>
</svg>
