<svg width="24" height="24" viewBox="0 0 24 24" fill="none" xmlns="http://www.w3.org/2000/svg">
<rect width="24" height="24" rx="8" fill="url(#paint0_linear_865_3671)"/>
<g clip-path="url(#clip0_865_3671)">
<path d="M17.6765 11.2194C17.6762 11.2191 17.6759 11.2189 17.6756 11.2186L12.7806 6.32373C12.5719 6.11499 12.2945 6 11.9995 6C11.7044 6 11.427 6.1149 11.2182 6.32364L6.32576 11.216C6.32411 11.2177 6.32246 11.2194 6.32081 11.2211C5.89235 11.652 5.89308 12.3512 6.32292 12.781C6.5193 12.9775 6.77867 13.0913 7.05598 13.1032C7.06724 13.1043 7.0786 13.1049 7.09004 13.1049H7.28514V16.7072C7.28514 17.42 7.86512 18 8.57814 18H10.4932C10.6873 18 10.8448 17.8426 10.8448 17.6484V14.8242C10.8448 14.4989 11.1094 14.2343 11.4347 14.2343H12.5643C12.8895 14.2343 13.1541 14.4989 13.1541 14.8242V17.6484C13.1541 17.8426 13.3115 18 13.5057 18H15.4208C16.1338 18 16.7138 17.42 16.7138 16.7072V13.1049H16.8947C17.1897 13.1049 17.4671 12.99 17.6759 12.7812C18.1062 12.3506 18.1064 11.6503 17.6765 11.2194Z" fill="white"/>
</g>
<defs>
<linearGradient id="paint0_linear_865_3671" x1="12" y1="-0.0722011" x2="12" y2="12.911" gradientUnits="userSpaceOnUse">
<stop stop-color="#B56BFF"/>
<stop offset="0.5" stop-color="#7A3DD3"/>
<stop offset="1" stop-color="#3C0CA6"/>
</linearGradient>
<clipPath id="clip0_865_3671">
<rect width="12" height="12" fill="white" transform="translate(6 6)"/>
</clipPath>
</defs>
</svg>
