<svg width="20" height="20" viewBox="0 0 20 20" fill="none" xmlns="http://www.w3.org/2000/svg">
<path fill-rule="evenodd" clip-rule="evenodd" d="M20.0007 1.24938C20.0006 1.03637 19.9461 0.826943 19.8423 0.640949C19.7384 0.454942 19.5889 0.29855 19.4077 0.186596C19.2264 0.074642 19.0197 0.0108521 18.8069 0.0012643C18.5941 -0.00831103 18.3824 0.036628 18.1919 0.131844L8.45404 4.99951H3.75013C2.75553 4.99951 1.80167 5.39461 1.09839 6.0979C0.395101 6.80117 0 7.75504 0 8.74964C0 9.74424 0.395101 10.6981 1.09839 11.4013C1.80167 12.1046 2.75553 12.4997 3.75013 12.4997H4.10014L6.31397 19.145C6.39691 19.394 6.55612 19.6106 6.76904 19.7641C6.98196 19.9175 7.2378 20.0001 7.50026 20H8.7503C9.08184 20 9.39979 19.8684 9.63422 19.6339C9.86864 19.3995 10.0003 19.0815 10.0003 18.75V13.2723L18.1919 17.3674C18.3824 17.4627 18.5941 17.5075 18.8069 17.498C19.0197 17.4884 19.2264 17.4247 19.4077 17.3127C19.5889 17.2008 19.7384 17.0443 19.8423 16.8583C19.9461 16.6723 20.0006 16.4629 20.0007 16.2499V1.24938Z" fill="white"/>
</svg>
