<svg width="20" height="20" viewBox="0 0 20 20" fill="none" xmlns="http://www.w3.org/2000/svg">
<path fill-rule="evenodd" clip-rule="evenodd" d="M7.32529 1.78314C8.31596 -0.59438 11.6841 -0.59438 12.6747 1.78314C12.8681 2.24719 13.4146 2.4618 13.8773 2.24824C16.3379 1.11257 18.8875 3.66215 17.7518 6.12275C17.5383 6.58546 17.7528 7.13195 18.2168 7.32529C20.5944 8.3159 20.5944 11.6841 18.2168 12.6747C17.7528 12.8681 17.5383 13.4146 17.7518 13.8773C18.8875 16.3378 16.3379 18.8874 13.8773 17.7517C13.4146 17.5382 12.8681 17.7528 12.6747 18.2169C11.6841 20.5944 8.31596 20.5944 7.32529 18.2169C7.13194 17.7528 6.58546 17.5382 6.12275 17.7517C3.66214 18.8874 1.11258 16.3378 2.24824 13.8773C2.4618 13.4146 2.24719 12.8681 1.78315 12.6747C-0.594382 11.6841 -0.594382 8.3159 1.78315 7.32529C2.24719 7.13195 2.4618 6.58546 2.24824 6.12275C1.11258 3.66215 3.66214 1.11257 6.12275 2.24824C6.58546 2.4618 7.13194 2.24719 7.32529 1.78314ZM5.98991 10.0001C5.98991 7.78545 7.78521 5.99015 9.99983 5.99015C12.2144 5.99015 14.0097 7.78545 14.0097 10.0001C14.0097 12.2146 12.2144 14.01 9.99983 14.01C7.78521 14.01 5.98991 12.2146 5.98991 10.0001Z" fill="white"/>
<path fill-rule="evenodd" clip-rule="evenodd" d="M10.0001 7.99512C8.89274 7.99512 7.99512 8.89274 7.99512 10.0001C7.99512 11.1074 8.89274 12.005 10.0001 12.005C11.1074 12.005 12.005 11.1074 12.005 10.0001C12.005 8.89274 11.1074 7.99512 10.0001 7.99512Z" fill="white"/>
</svg>
