<svg width="32" height="32" viewBox="0 0 32 32" fill="none" xmlns="http://www.w3.org/2000/svg">
<path fill-rule="evenodd" clip-rule="evenodd" d="M29.3343 4.33284C29.3341 4.04883 29.2614 3.76958 29.1231 3.52159C28.9846 3.27358 28.7852 3.06506 28.5436 2.91579C28.3019 2.76651 28.0262 2.68146 27.7425 2.66868C27.4589 2.65591 27.1765 2.71583 26.9225 2.84278L13.9387 9.33301H7.66686C6.34073 9.33301 5.06892 9.85981 4.1312 10.7975C3.19349 11.7352 2.66669 13.007 2.66669 14.3332C2.66669 15.6593 3.19349 16.9311 4.1312 17.8688C5.06892 18.8065 6.34073 19.3333 7.66686 19.3333H8.13354L11.0853 28.1936C11.1959 28.5256 11.4082 28.8145 11.6921 29.0191C11.976 29.2237 12.3171 29.3338 12.667 29.3337H14.3338C14.7758 29.3337 15.1997 29.1582 15.5123 28.8455C15.8249 28.533 16.0005 28.1089 16.0005 27.6669V20.3633L26.9225 25.8235C27.1765 25.9505 27.4589 26.0104 27.7425 25.9977C28.0262 25.9849 28.3019 25.8999 28.5436 25.7505C28.7852 25.6014 28.9846 25.3927 29.1231 25.1447C29.2614 24.8967 29.3341 24.6175 29.3343 24.3335V4.33284Z" fill="white"/>
</svg>
