<svg width="16" height="16" viewBox="0 0 16 16" fill="none" xmlns="http://www.w3.org/2000/svg">
<g clip-path="url(#clip0_212_3365)">
<path d="M5.77322 2.97435C6.0321 2.97435 6.24197 2.76447 6.24197 2.5056V1.56169C6.24197 1.30282 6.0321 1.09294 5.77322 1.09294C5.51435 1.09294 5.30447 1.30282 5.30447 1.56169V2.5056C5.30447 2.76447 5.51435 2.97435 5.77322 2.97435Z" fill="#737283"/>
<path d="M1.52066 4.69018L0.703188 4.21821C0.478969 4.08871 0.192282 4.16558 0.0628754 4.38977C-0.0665621 4.61399 0.0102504 4.90068 0.234438 5.03008L1.05191 5.50205C1.27559 5.63124 1.5625 5.55521 1.69222 5.33049C1.82166 5.10627 1.74484 4.81958 1.52066 4.69018Z" fill="#737283"/>
<path d="M1.05191 9.8713L0.234438 10.3432C-0.179312 10.5821 -0.00943714 11.218 0.46925 11.218C0.681657 11.218 0.735313 11.1154 1.52063 10.6832C1.74481 10.5537 1.82163 10.2671 1.69219 10.0429C1.56278 9.81867 1.27616 9.74177 1.05191 9.8713Z" fill="#737283"/>
<path d="M10.4945 5.50205L11.312 5.03008C11.5362 4.90065 11.613 4.61399 11.4835 4.38977C11.3541 4.16558 11.0675 4.08871 10.8432 4.21821L10.0257 4.69018C9.80156 4.81962 9.72475 5.10627 9.85419 5.33049C9.98428 5.5558 10.2714 5.63093 10.4945 5.50205Z" fill="#737283"/>
<path d="M4.82578 8.87346C5.17369 6.9674 6.70931 5.5074 8.62628 5.25596C7.93794 4.44918 6.91438 3.93665 5.77319 3.93665C3.70544 3.93665 2.02322 5.6189 2.02322 7.68665C2.02322 8.67421 2.40713 9.57368 3.03335 10.2441C3.46688 9.60786 4.09966 9.12236 4.82578 8.87346Z" fill="#737283"/>
<path d="M12.4658 8.35211C11.935 7.0404 10.6485 6.1554 9.20628 6.1554C7.2725 6.1554 5.71153 7.71371 5.69109 9.63527C4.35969 9.78133 3.34694 10.923 3.34694 12.2623C3.34694 13.7197 4.53259 14.9054 5.98994 14.9054C13.3653 14.8977 12.9618 14.9242 13.0902 14.8844C14.7285 14.6996 16 13.3101 16 11.6242C16 9.69896 14.3549 8.20415 12.4658 8.35211Z" fill="#737283"/>
</g>
<defs>
<clipPath id="clip0_212_3365">
<rect width="16" height="16" fill="white"/>
</clipPath>
</defs>
</svg>
