<svg width="16" height="16" viewBox="0 0 16 16" fill="none" xmlns="http://www.w3.org/2000/svg">
<path d="M6.90925 15.9959C3.29468 15.544 0.45519 12.7046 0.00377793 9.09089C-0.0316024 8.81169 0.186524 8.56393 0.468942 8.56393H2.36391C2.59282 8.56393 2.78785 8.72921 2.82633 8.95446C3.19076 11.1127 4.88611 12.8085 7.04571 13.1734C7.27097 13.2118 7.43624 13.4069 7.43624 13.6358V15.5308C7.43621 15.8096 7.19448 16.0299 6.90925 15.9959Z" fill="white"/>
<path d="M2.36415 7.50136H0.469182C0.186608 7.50136 -0.0313306 7.25344 0.00401851 6.9744C0.500312 2.99855 3.89745 0.000228882 7.9053 0.000228882C9.68582 0.000228882 11.3739 0.580754 12.7872 1.67911C13.0119 1.85448 13.0288 2.18331 12.8311 2.38096L11.4915 3.72104C11.3294 3.88356 11.0749 3.90372 10.8881 3.77139C10.0086 3.14461 8.97706 2.81315 7.90527 2.81315C5.38308 2.81315 3.24682 4.62067 2.82654 7.11083C2.78809 7.33605 2.59306 7.50136 2.36415 7.50136Z" fill="white"/>
<path d="M8.49887 15.5312V13.6362C8.49887 13.4073 8.66415 13.2123 8.8894 13.1738C11.3796 12.7535 13.1871 10.6173 13.1871 8.0951C13.1871 7.02331 12.8556 5.99181 12.2288 5.1123C12.0961 4.92596 12.1171 4.67049 12.2792 4.50887L13.6193 3.16926C13.8144 2.97414 14.1443 2.98652 14.3211 3.21321C15.4195 4.62654 16 6.31458 16 8.09507C16 12.1029 13.0016 15.5001 9.02582 15.9963C8.7375 16.0307 8.49887 15.8068 8.49887 15.5312Z" fill="white"/>
<path d="M6.12351 6.12608C6.12351 5.86716 5.91361 5.65726 5.65469 5.65726H4.71705C4.45814 5.65726 4.24823 5.86716 4.24823 6.12608V9.87664C4.24823 10.1356 4.45814 10.3455 4.71705 10.3455H5.65469C5.91361 10.3455 6.12351 10.1356 6.12351 9.87664V6.12608Z" fill="white"/>
<path d="M8.93644 9.87663V5.18843C8.93644 4.92951 8.72653 4.7196 8.46762 4.7196H7.52998C7.27106 4.7196 7.06116 4.92951 7.06116 5.18843V9.87663C7.06116 10.1355 7.27106 10.3455 7.52998 10.3455H8.46762C8.72656 10.3455 8.93644 10.1355 8.93644 9.87663Z" fill="white"/>
<path d="M11.7494 9.87663V8.00135C11.7494 7.74244 11.5395 7.53253 11.2805 7.53253H10.3429C10.084 7.53253 9.87408 7.74244 9.87408 8.00135V9.87663C9.87408 10.1355 10.084 10.3455 10.3429 10.3455H11.2805C11.5395 10.3455 11.7494 10.1355 11.7494 9.87663Z" fill="white"/>
</svg>
