<svg width="16" height="16" viewBox="0 0 16 16" fill="none" xmlns="http://www.w3.org/2000/svg">
<path d="M15.5686 6.95923C15.5682 6.95886 15.5679 6.9585 15.5675 6.95813L9.04077 0.431641C8.76257 0.15332 8.3927 0 7.99927 0C7.60584 0 7.23596 0.153198 6.95764 0.431519L0.434327 6.95471C0.43213 6.95691 0.429933 6.95923 0.427736 6.96143C-0.143554 7.53601 -0.142577 8.46826 0.430543 9.04138C0.692384 9.30334 1.03821 9.45508 1.40796 9.47095C1.42297 9.47241 1.43811 9.47314 1.45337 9.47314H1.7135V14.2762C1.7135 15.2267 2.48682 16 3.4375 16H5.99097C6.24976 16 6.45972 15.7902 6.45972 15.5312V11.7656C6.45972 11.3319 6.8125 10.9791 7.24622 10.9791H8.75232C9.18604 10.9791 9.53882 11.3319 9.53882 11.7656V15.5312C9.53882 15.7902 9.74866 16 10.0076 16H12.561C13.5117 16 14.285 15.2267 14.285 14.2762V9.47314H14.5262C14.9196 9.47314 15.2894 9.31995 15.5679 9.04163C16.1416 8.46753 16.1418 7.53369 15.5686 6.95923Z" fill="white"/>
</svg>
