<svg width="16" height="16" viewBox="0 0 16 16" fill="none" xmlns="http://www.w3.org/2000/svg">
<g clip-path="url(#clip0_212_3396)">
<path d="M3.34625 9.18636C3.19625 9.39964 3.24903 9.6932 3.46219 9.84136L3.78434 10.0651C3.25853 10.5724 2.55338 10.8595 1.81687 10.8595H0.9375V9.84386C0.9375 9.58499 0.727625 9.37511 0.46875 9.37511C0.209875 9.37511 0 9.58499 0 9.84386V14.6251C0 14.884 0.209875 15.0939 0.46875 15.0939C0.727625 15.0939 0.9375 14.884 0.9375 14.6251V13.672H1.57288C3.25513 13.672 4.90025 12.9646 6.06887 11.6516L6.53781 11.9773C6.75072 12.126 7.04609 12.0714 7.1925 11.856L7.51375 11.3845L3.71094 8.66855L3.34625 9.18636Z" fill="white"/>
<path d="M15.7957 9.22823L15.6228 9.11011L12.0275 11.9829L13.0563 12.7235C13.2572 12.8681 13.5381 12.8316 13.6947 12.6373L15.896 9.90979C16.0685 9.69589 16.0205 9.38158 15.7957 9.22823Z" fill="white"/>
<path d="M15.0677 7.59303L6.05435 1.08384C5.6495 0.7914 5.08738 0.8674 4.77463 1.25671L1.81241 4.94374C1.47553 5.36315 1.56057 5.98112 1.99844 6.29384L9.97253 11.9884C10.1429 12.1101 10.3737 12.1041 10.5375 11.9731L15.0859 8.33928C15.3276 8.14621 15.3192 7.77462 15.0677 7.59303ZM11.75 8.42196C11.4911 8.42196 11.2813 8.21209 11.2813 7.95321C11.2813 7.69434 11.4911 7.48446 11.75 7.48446C12.0089 7.48446 12.2188 7.69434 12.2188 7.95321C12.2188 8.21209 12.0089 8.42196 11.75 8.42196Z" fill="white"/>
</g>
<defs>
<clipPath id="clip0_212_3396">
<rect width="16" height="16" fill="white"/>
</clipPath>
</defs>
</svg>
