<svg width="16" height="16" viewBox="0 0 16 16" fill="none" xmlns="http://www.w3.org/2000/svg">
<path d="M8 0C4.80484 0 2.20541 2.59944 2.20541 5.79456C2.20541 9.75981 7.391 15.581 7.61178 15.8269C7.81916 16.0579 8.18122 16.0575 8.38822 15.8269C8.609 15.581 13.7946 9.75981 13.7946 5.79456C13.7945 2.59944 11.1951 0 8 0ZM8 8.70997C6.39244 8.70997 5.08462 7.40212 5.08462 5.79456C5.08462 4.187 6.39247 2.87919 8 2.87919C9.60753 2.87919 10.9153 4.18703 10.9153 5.79459C10.9153 7.40216 9.60753 8.70997 8 8.70997Z" fill="#737283"/>
</svg>
