<svg width="16" height="16" viewBox="0 0 16 16" fill="none" xmlns="http://www.w3.org/2000/svg">
<g clip-path="url(#clip0_212_3391)">
<path d="M0 11.7188C0 11.9776 0.209875 12.1875 0.46875 12.1875H6.125V12.8281H9.875V12.1875H15.5312C15.7901 12.1875 16 11.9776 16 11.7188V10.2969H0V11.7188Z" fill="white"/>
<path d="M15.5312 0H0.46875C0.209875 0 0 0.209875 0 0.46875V9.35938H16V0.46875C16 0.209875 15.7901 0 15.5312 0ZM11.8125 5.15625H10.4062C10.1993 5.15625 10.0168 5.02047 9.95728 4.82222L9.57981 3.56403L8.45162 7.62547C8.32491 8.08175 7.67444 8.08178 7.54816 7.62488L6.57463 4.10219L6.16897 4.89997C6.089 5.05722 5.92753 5.15625 5.75112 5.15625H4.625C4.36613 5.15625 4.15625 4.94637 4.15625 4.6875C4.15625 4.42863 4.36613 4.21875 4.625 4.21875H5.46359L6.28662 2.60003C6.48006 2.21959 7.04253 2.27606 7.15628 2.68762L8.00113 5.74447L9.11084 1.74953C9.23603 1.29878 9.87603 1.28884 10.0115 1.74028L10.755 4.21875H11.8125C12.0714 4.21875 12.2812 4.42863 12.2812 4.6875C12.2812 4.94637 12.0714 5.15625 11.8125 5.15625Z" fill="white"/>
<path d="M10.5 13.7812H5.5C4.72459 13.7812 4.09375 14.4121 4.09375 15.1875V15.5312C4.09375 15.7901 4.30362 16 4.5625 16H11.4375C11.6964 16 11.9062 15.7901 11.9062 15.5312V15.1875C11.9062 14.4121 11.2754 13.7812 10.5 13.7812Z" fill="white"/>
</g>
<defs>
<clipPath id="clip0_212_3391">
<rect width="16" height="16" fill="white"/>
</clipPath>
</defs>
</svg>
