<svg width="16" height="15" viewBox="0 0 16 15" fill="none" xmlns="http://www.w3.org/2000/svg">
<path d="M1.6 3.53333H14.4C14.8243 3.53333 15.2313 3.36476 15.5314 3.0647C15.8314 2.76464 16 2.35767 16 1.93333C16 1.50898 15.8314 1.10202 15.5314 0.801957C15.2313 0.501899 14.8243 0.333328 14.4 0.333328H1.6C1.17565 0.333328 0.768687 0.501899 0.468629 0.801957C0.168571 1.10202 0 1.50898 0 1.93333C0 2.35767 0.168571 2.76464 0.468629 3.0647C0.768687 3.36476 1.17565 3.53333 1.6 3.53333Z" fill="#EDEEED"/>
<path d="M14.4 5.66675H1.6C1.17565 5.66675 0.768687 5.83532 0.468629 6.13538C0.168571 6.43544 0 6.8424 0 7.26675C0 7.69109 0.168571 8.09806 0.468629 8.39812C0.768687 8.69818 1.17565 8.86675 1.6 8.86675H14.4C14.8243 8.86675 15.2313 8.69818 15.5314 8.39812C15.8314 8.09806 16 7.69109 16 7.26675C16 6.8424 15.8314 6.43544 15.5314 6.13538C15.2313 5.83532 14.8243 5.66675 14.4 5.66675Z" fill="#EDEEED"/>
<path d="M14.4 11.0001H1.6C1.17565 11.0001 0.768687 11.1686 0.468629 11.4687C0.168571 11.7687 0 12.1757 0 12.6001C0 13.0244 0.168571 13.4314 0.468629 13.7314C0.768687 14.0315 1.17565 14.2001 1.6 14.2001H14.4C14.8243 14.2001 15.2313 14.0315 15.5314 13.7314C15.8314 13.4314 16 13.0244 16 12.6001C16 12.1757 15.8314 11.7687 15.5314 11.4687C15.2313 11.1686 14.8243 11.0001 14.4 11.0001Z" fill="#EDEEED"/>
</svg>
