<svg width="40" height="40" viewBox="0 0 40 40" fill="none" xmlns="http://www.w3.org/2000/svg">
<path fill-rule="evenodd" clip-rule="evenodd" d="M20 4.16634C20 3.70611 19.6268 3.33301 19.1666 3.33301H13.3333C9.65139 3.33301 6.66663 6.31777 6.66663 9.99967V29.9997C6.66663 33.6815 9.65139 36.6663 13.3333 36.6663H26.6666C30.3485 36.6663 33.3333 33.6815 33.3333 29.9997V17.4997C33.3333 17.0395 32.9601 16.6663 32.5 16.6663H28.3333C23.731 16.6663 20 12.9354 20 8.33301V4.16634ZM32.0325 13.333C32.5866 13.333 32.9848 12.7979 32.7186 12.3118C32.4926 11.8992 32.2075 11.5169 31.8688 11.1782L25.4881 4.79747C25.1495 4.45877 24.7671 4.17369 24.3545 3.94767C23.8685 3.68149 23.3333 4.07976 23.3333 4.63392V8.33301C23.3333 11.0944 25.5718 13.333 28.3333 13.333H32.0325ZM18.8215 18.8212C19.4723 18.1703 20.5276 18.1703 21.1785 18.8212L26.1785 23.8212C26.8293 24.472 26.8293 25.5273 26.1785 26.1782C25.5276 26.829 24.4723 26.829 23.8215 26.1782L21.6666 24.0233V29.9997C21.6666 30.9202 20.9205 31.6663 20 31.6663C19.0795 31.6663 18.3333 30.9202 18.3333 29.9997V24.0233L16.1785 26.1782C15.5276 26.829 14.4723 26.829 13.8214 26.1782C13.1706 25.5273 13.1706 24.472 13.8214 23.8212L18.8215 18.8212Z" fill="white"/>
</svg>
