<svg width="24" height="24" viewBox="0 0 24 24" fill="none" xmlns="http://www.w3.org/2000/svg">
<path d="M12.1539 2C9.99213 2.00242 7.91956 2.86226 6.39093 4.39088C4.8623 5.91949 4.00244 7.99205 4 10.1538C4 14.5231 10.0155 22 12.1539 22C14.2924 22 20.3078 14.5231 20.3078 10.1538C20.3054 7.99204 19.4456 5.91947 17.9169 4.39084C16.3883 2.86222 14.3157 2.00239 12.1539 2ZM12.1539 13.9231C11.3932 13.9231 10.6496 13.6975 10.0171 13.2749C9.38462 12.8523 8.89165 12.2516 8.60054 11.5488C8.30943 10.846 8.23327 10.0727 8.38167 9.32658C8.53008 8.5805 8.89639 7.89518 9.43428 7.35728C9.97218 6.81939 10.6575 6.45308 11.4036 6.30467C12.1497 6.15627 12.923 6.23243 13.6258 6.52354C14.3286 6.81465 14.9293 7.30762 15.3519 7.94011C15.7745 8.57261 16.0001 9.31623 16.0001 10.0769C15.9997 11.0969 15.5944 12.0749 14.8732 12.7962C14.1519 13.5174 13.1739 13.9227 12.1539 13.9231Z" fill="white"/>
</svg>
