<svg width="16" height="16" viewBox="0 0 16 16" fill="none" xmlns="http://www.w3.org/2000/svg">
<path d="M10.6704 4C9.56774 4 8.67041 3.10267 8.67041 2C8.67041 0.897333 9.56774 0 10.6704 0C11.7731 0 12.6704 0.897333 12.6704 2C12.6704 3.10267 11.7731 4 10.6704 4Z" fill="#A3A3BD"/>
<path d="M12.8837 15.9998H10.6664C10.2984 15.9998 9.99969 15.7012 9.99969 15.3332V8.49984L8.69569 9.4805C8.43302 9.7145 8.11169 9.86384 7.76436 9.91384L6.73369 10.0632C6.38369 10.1145 6.02702 10.0092 5.75902 9.7765C5.48969 9.5425 5.33502 9.20384 5.33502 8.84584C5.33502 8.3785 5.59369 7.95717 6.00969 7.74784L7.86569 6.81117C7.98769 6.74984 8.09102 6.65784 8.16636 6.54384L8.50369 6.0345C9.06902 5.1805 10.0257 4.6665 11.0504 4.6665H11.7964C12.2597 4.6665 12.6964 4.83917 13.0237 5.1525C14.0944 6.17317 14.617 7.90117 14.6677 10.5905C14.6817 11.3438 14.4664 12.0778 14.0444 12.7152L13.8384 13.0258C13.5417 13.4738 13.383 13.9992 13.383 14.5365V15.5005C13.3837 15.7758 13.1597 15.9998 12.8837 15.9998Z" fill="#A3A3BD"/>
<path d="M8.24907 11.3085C8.09773 9.7545 6.7704 8.6665 5.33307 8.6665C3.82507 8.6665 2.57107 9.8005 2.41773 11.3038L2.00373 15.2638C1.96507 15.6298 2.23107 15.9578 2.59773 15.9958C2.62107 15.9985 2.6444 15.9998 2.66707 15.9998C3.0044 15.9998 3.29307 15.7452 3.32907 15.4025L3.47573 13.9998H7.1904L7.33707 15.4025C7.37307 15.7452 7.66173 15.9998 7.99907 15.9998C8.02173 15.9998 8.04507 15.9985 8.0684 15.9958C8.43507 15.9578 8.7004 15.6298 8.6624 15.2638L8.24907 11.3085ZM3.61573 12.6665L3.7444 11.4405C3.82773 10.6198 4.51173 9.99984 5.33307 9.99984C6.2804 9.99984 6.85373 10.7378 6.92307 11.4418L7.05107 12.6665H3.61573Z" fill="#A3A3BD"/>
</svg>
