<svg width="16" height="20" viewBox="0 0 16 20" fill="none" xmlns="http://www.w3.org/2000/svg">
<path d="M7.99998 9.7959C10.7189 9.7959 12.9231 7.60303 12.9231 4.89796C12.9231 2.19289 10.7189 0 7.99998 0C5.28104 0 3.0769 2.19289 3.0769 4.89796C3.0769 7.60303 5.28104 9.7959 7.99998 9.7959Z" fill="#929EB0"/>
<path d="M10.5641 11.8369H5.4359C2.46154 11.8369 0 14.286 0 17.2451C0 17.9594 0.30769 18.5717 0.92308 18.8778C1.84615 19.388 3.89744 20.0001 8 20.0001C12.1026 20.0001 14.1538 19.388 15.0769 18.8778C15.5897 18.5717 16 17.9594 16 17.2451C16 14.1839 13.5385 11.8369 10.5641 11.8369Z" fill="#929EB0"/>
</svg>
