<svg width="16" height="16" viewBox="0 0 16 16" fill="none" xmlns="http://www.w3.org/2000/svg">
<path d="M9.75002 4.625C9.42802 4.625 9.16669 4.36367 9.16669 4.04167V3.16667H6.83335V4.04167C6.83335 4.36367 6.57202 4.625 6.25002 4.625C5.92802 4.625 5.66669 4.36367 5.66669 4.04167V3.16667C5.66669 2.52325 6.18994 2 6.83335 2H9.16669C9.8101 2 10.3334 2.52325 10.3334 3.16667V4.04167C10.3334 4.36367 10.072 4.625 9.75002 4.625Z" fill="#A3A3BD"/>
<path d="M8.41417 9.80466C8.30917 9.84549 8.1575 9.87466 8 9.87466C7.8425 9.87466 7.69083 9.84549 7.55083 9.79299L1 7.61133V12.0622C1 12.9488 1.7175 13.6663 2.60417 13.6663H13.3958C14.2825 13.6663 15 12.9488 15 12.0622V7.61133L8.41417 9.80466Z" fill="#A3A3BD"/>
<path d="M15 5.35417V6.69L8.14 8.97667C8.09333 8.99417 8.04667 9 8 9C7.95333 9 7.90667 8.99417 7.86 8.97667L1 6.69V5.35417C1 4.4675 1.7175 3.75 2.60417 3.75H13.3958C14.2825 3.75 15 4.4675 15 5.35417Z" fill="#A3A3BD"/>
</svg>
