<svg width="16" height="16" viewBox="0 0 16 16" fill="none" xmlns="http://www.w3.org/2000/svg">
<path d="M4.5 8.5C4.5 8.3625 4.6125 8.25 4.75 8.25H5V4.25C5 3.8375 5.3375 3.5 5.75 3.5H6.75V8.75H4.75C4.6125 8.75 4.5 8.6375 4.5 8.5ZM8.625 8.75H7.25V3C7.25 2.58749 7.58749 2.25 8 2.25H11C11.4125 2.25 11.75 2.58749 11.75 3V8.75H10.375V7.25C10.5125 7.25 10.625 7.1375 10.625 7C10.625 6.8625 10.5125 6.75 10.375 6.75H8.625C8.4875 6.75 8.375 6.8625 8.375 7C8.375 7.1375 8.4875 7.25 8.625 7.25V8.75ZM9.75 4C9.75 4.1375 9.8625 4.25 10 4.25H10.5C10.6375 4.25 10.75 4.1375 10.75 4C10.75 3.8625 10.6375 3.75 10.5 3.75H10C9.8625 3.75 9.75 3.8625 9.75 4ZM9.75 5.25C9.75 5.3875 9.8625 5.5 10 5.5H10.5C10.6375 5.5 10.75 5.3875 10.75 5.25C10.75 5.1125 10.6375 5 10.5 5H10C9.8625 5 9.75 5.1125 9.75 5.25ZM8.25 4C8.25 4.1375 8.3625 4.25 8.5 4.25H9C9.1375 4.25 9.25 4.1375 9.25 4C9.25 3.8625 9.1375 3.75 9 3.75H8.5C8.3625 3.75 8.25 3.8625 8.25 4ZM8.5 5.5H9C9.1375 5.5 9.25 5.3875 9.25 5.25C9.25 5.1125 9.1375 5 9 5H8.5C8.3625 5 8.25 5.1125 8.25 5.25C8.25 5.3875 8.3625 5.5 8.5 5.5ZM9.875 8.75V7.25H9.125V8.75H9.875ZM14.25 8.25H14V1.75C14 1.33749 13.6625 1 13.25 1H10.75C10.3375 1 10 1.33749 10 1.75H11C11.69 1.75 12.25 2.31 12.25 3V8.75H14.25C14.3875 8.75 14.5 8.6375 14.5 8.5C14.5 8.3625 14.3875 8.25 14.25 8.25ZM11.84 10.93L10.025 11.4575C10.0175 11.55 10.0025 11.64 9.9775 11.73C9.97251 11.7425 9.97 11.755 9.965 11.7675C9.83251 12.1875 9.5025 12.525 9.08749 12.6675C8.9525 12.72 8.7925 12.7475 8.6275 12.7475H6.935C6.79692 12.7475 6.685 12.6356 6.685 12.4975C6.685 12.3594 6.79692 12.2475 6.935 12.2475H8.6275C8.7325 12.2475 8.8325 12.23 8.925 12.195C9.1925 12.1025 9.40249 11.8875 9.49 11.615V11.6125C9.53056 11.4786 9.5448 11.325 9.51134 11.1623C9.42355 10.7355 9.02141 10.445 8.58563 10.445H6.88764C6.75656 10.445 6.62819 10.4077 6.5175 10.3375L5.7175 9.83C5.37772 9.61446 4.98363 9.5 4.58124 9.5H1.75C1.6125 9.5 1.5 9.6125 1.5 9.75V13.2325C1.5 13.37 1.6125 13.4825 1.75 13.4825H3.11C3.19 13.4825 3.27 13.505 3.33749 13.545L5.0675 14.5525C5.5775 14.85 6.1475 15 6.72 15C7.19749 15 7.67751 14.895 8.125 14.685L12.48 12.62C12.9025 12.4225 13.1025 11.94 12.9475 11.5C12.7875 11.0475 12.3025 10.7975 11.84 10.93Z" fill="#A3A3BD"/>
</svg>
