<svg width="16" height="16" viewBox="0 0 16 16" fill="none" xmlns="http://www.w3.org/2000/svg">
<path d="M7 7.5C7.69036 7.5 8.25 6.94036 8.25 6.25C8.25 5.55964 7.69036 5 7 5C6.30964 5 5.75 5.55964 5.75 6.25C5.75 6.94036 6.30964 7.5 7 7.5Z" fill="#A3A3BD"/>
<path d="M14.89 11.1845C14.7548 10.6879 14.4922 10.2352 14.1282 9.87127C13.7643 9.50733 13.3116 9.24475 12.815 9.10955C12.3012 8.96375 11.7578 8.95776 11.2409 9.0922C10.724 9.22664 10.2524 9.49663 9.87471 9.87429C9.49706 10.2519 9.22707 10.7236 9.09263 11.2405C8.95819 11.7573 8.96418 12.3007 9.10997 12.8145C9.24518 13.3112 9.50775 13.7639 9.8717 14.1278C10.2356 14.4918 10.6883 14.7543 11.185 14.8895C11.6988 15.0353 12.2422 15.0413 12.7591 14.9069C13.276 14.7725 13.7476 14.5025 14.1252 14.1248C14.5029 13.7472 14.7729 13.2755 14.9073 12.7586C15.0418 12.2418 15.0358 11.6983 14.89 11.1845ZM13.105 11.8545L12.105 12.8545C12.0585 12.9014 12.0032 12.9386 11.9423 12.964C11.8813 12.9894 11.816 13.0024 11.75 13.0024C11.684 13.0024 11.6186 12.9894 11.5577 12.964C11.4968 12.9386 11.4415 12.9014 11.395 12.8545L10.895 12.3545C10.8008 12.2604 10.7479 12.1327 10.7479 11.9995C10.7479 11.8664 10.8008 11.7387 10.895 11.6445C10.9891 11.5504 11.1168 11.4975 11.25 11.4975C11.3831 11.4975 11.5108 11.5504 11.605 11.6445L11.75 11.7945L12.395 11.1445C12.4891 11.0504 12.6168 10.9975 12.75 10.9975C12.8831 10.9975 13.0108 11.0504 13.105 11.1445C13.1991 11.2387 13.252 11.3664 13.252 11.4995C13.252 11.6327 13.1991 11.7604 13.105 11.8545Z" fill="#A3A3BD"/>
<path d="M8 8.49979H6C5.73478 8.49979 5.48043 8.60514 5.29289 8.79268C5.10536 8.98022 5 9.23457 5 9.49979V9.99979C5 10.1324 4.94732 10.2596 4.85355 10.3533C4.75979 10.4471 4.63261 10.4998 4.5 10.4998C4.36739 10.4998 4.24021 10.4471 4.14645 10.3533C4.05268 10.2596 4 10.1324 4 9.99979V9.49979C4.00081 9.10209 4.12016 8.71365 4.34282 8.38412C4.56547 8.05459 4.88132 7.79892 5.25 7.64979C4.98302 7.31941 4.81501 6.92021 4.7654 6.49835C4.71579 6.07649 4.78661 5.6492 4.96967 5.2659C5.15273 4.88261 5.44055 4.55896 5.79985 4.33238C6.15914 4.10581 6.57523 3.98557 7 3.98557C7.42477 3.98557 7.84086 4.10581 8.20015 4.33238C8.55945 4.55896 8.84727 4.88261 9.03033 5.2659C9.21339 5.6492 9.28421 6.07649 9.2346 6.49835C9.18499 6.92021 9.01698 7.31941 8.75 7.64979C9.21652 7.83795 9.595 8.19501 9.81 8.64979C10.2691 8.34878 10.7853 8.14549 11.3263 8.05259C11.8674 7.95969 12.4218 7.97916 12.955 8.10979C12.98 7.83979 13 7.56479 13 7.28979V3.49979C13 3.39703 12.9683 3.29678 12.9092 3.21268C12.8502 3.12859 12.7666 3.06472 12.67 3.02979L7.17 1.02979C7.06015 0.990071 6.93985 0.990071 6.83 1.02979L1.33 3.02979C1.23336 3.06472 1.14984 3.12859 1.09079 3.21268C1.03175 3.29678 1.00004 3.39703 1 3.49979V7.29979C1.00246 9.04839 1.57775 10.748 2.63787 12.1386C3.69798 13.5292 5.18451 14.5342 6.87 14.9998C6.95459 15.0266 7.04541 15.0266 7.13 14.9998C7.6925 14.8463 8.23593 14.6299 8.75 14.3548C8.4718 13.9735 8.26511 13.5449 8.14 13.0898C7.96456 12.4494 7.95132 11.7753 8.10145 11.1285C8.25159 10.4817 8.56039 9.88244 9 9.38479C8.97166 9.13997 8.85392 8.91424 8.66937 8.75091C8.48481 8.58758 8.24644 8.49815 8 8.49979Z" fill="#A3A3BD"/>
</svg>
