<svg width="18" height="18" viewBox="0 0 18 18" fill="none" xmlns="http://www.w3.org/2000/svg">
<path d="M12.1668 3.54V2.5C12.1668 2.22667 11.9401 2 11.6668 2C11.3935 2 11.1668 2.22667 11.1668 2.5V3.5H6.83349V2.5C6.83349 2.22667 6.60682 2 6.33349 2C6.06016 2 5.83349 2.22667 5.83349 2.5V3.54C4.03349 3.70667 3.16016 4.78 3.02682 6.37333C3.01349 6.56667 3.17349 6.72667 3.36016 6.72667H14.6401C14.8335 6.72667 14.9935 6.56 14.9735 6.37333C14.8401 4.78 13.9668 3.70667 12.1668 3.54Z" fill="#A1A1C2"/>
<path d="M14.3333 7.72656H3.66667C3.3 7.72656 3 8.02657 3 8.39324V12.4999C3 14.4999 4 15.8332 6.33333 15.8332H11.6667C14 15.8332 15 14.4999 15 12.4999V8.39324C15 8.02657 14.7 7.72656 14.3333 7.72656ZM7.14 13.3066C7.07333 13.3666 7 13.4132 6.92 13.4466C6.84 13.4799 6.75333 13.4999 6.66667 13.4999C6.58 13.4999 6.49333 13.4799 6.41333 13.4466C6.33333 13.4132 6.26 13.3666 6.19333 13.3066C6.07333 13.1799 6 13.0066 6 12.8332C6 12.6599 6.07333 12.4866 6.19333 12.3599C6.26 12.2999 6.33333 12.2532 6.41333 12.2199C6.57333 12.1532 6.76 12.1532 6.92 12.2199C7 12.2532 7.07333 12.2999 7.14 12.3599C7.26 12.4866 7.33333 12.6599 7.33333 12.8332C7.33333 13.0066 7.26 13.1799 7.14 13.3066ZM7.28 10.7532C7.24667 10.8332 7.2 10.9066 7.14 10.9732C7.07333 11.0332 7 11.0799 6.92 11.1132C6.84 11.1466 6.75333 11.1666 6.66667 11.1666C6.58 11.1666 6.49333 11.1466 6.41333 11.1132C6.33333 11.0799 6.26 11.0332 6.19333 10.9732C6.13333 10.9066 6.08667 10.8332 6.05333 10.7532C6.02 10.6732 6 10.5866 6 10.4999C6 10.4132 6.02 10.3266 6.05333 10.2466C6.08667 10.1666 6.13333 10.0932 6.19333 10.0266C6.26 9.96657 6.33333 9.9199 6.41333 9.88657C6.57333 9.8199 6.76 9.8199 6.92 9.88657C7 9.9199 7.07333 9.96657 7.14 10.0266C7.2 10.0932 7.24667 10.1666 7.28 10.2466C7.31333 10.3266 7.33333 10.4132 7.33333 10.4999C7.33333 10.5866 7.31333 10.6732 7.28 10.7532ZM9.47333 10.9732C9.40667 11.0332 9.33333 11.0799 9.25333 11.1132C9.17333 11.1466 9.08667 11.1666 9 11.1666C8.91333 11.1666 8.82667 11.1466 8.74667 11.1132C8.66667 11.0799 8.59333 11.0332 8.52667 10.9732C8.40667 10.8466 8.33333 10.6732 8.33333 10.4999C8.33333 10.3266 8.40667 10.1532 8.52667 10.0266C8.59333 9.96657 8.66667 9.9199 8.74667 9.88657C8.90667 9.81324 9.09333 9.81324 9.25333 9.88657C9.33333 9.9199 9.40667 9.96657 9.47333 10.0266C9.59333 10.1532 9.66667 10.3266 9.66667 10.4999C9.66667 10.6732 9.59333 10.8466 9.47333 10.9732Z" fill="#A1A1C2"/>
</svg>
