<svg width="16" height="16" viewBox="0 0 16 16" fill="none" xmlns="http://www.w3.org/2000/svg">
<path d="M5.00002 7.99965H6.66669C6.71047 7.99968 6.75383 7.99107 6.79428 7.97433C6.83473 7.95759 6.87149 7.93303 6.90245 7.90208C6.93341 7.87112 6.95796 7.83436 6.9747 7.79391C6.99144 7.75345 7.00005 7.7101 7.00002 7.66632V4.98923H9.00002V7.66632C8.99999 7.7101 9.0086 7.75345 9.02534 7.79391C9.04208 7.83436 9.06663 7.87112 9.09759 7.90208C9.12855 7.93303 9.16531 7.95759 9.20576 7.97433C9.24622 7.99107 9.28957 7.99968 9.33335 7.99965H11C11.0438 7.99968 11.0872 7.99107 11.1276 7.97433C11.1681 7.95759 11.2048 7.93303 11.2358 7.90208C11.2667 7.87112 11.2913 7.83436 11.308 7.79391C11.3248 7.75345 11.3334 7.7101 11.3334 7.66632V3.33298C11.3333 3.27811 11.3198 3.22409 11.2939 3.17571C11.268 3.12733 11.2306 3.08609 11.1849 3.05565L8.18492 1.05565C8.13009 1.01935 8.06578 1 8.00002 1C7.93426 1 7.86996 1.01935 7.81512 1.05565L4.81512 3.05565C4.76947 3.08609 4.73204 3.12733 4.70614 3.17571C4.68025 3.22409 4.6667 3.27811 4.66669 3.33298V7.66632C4.66666 7.7101 4.67526 7.75345 4.69201 7.79391C4.70875 7.83436 4.7333 7.87112 4.76426 7.90208C4.79522 7.93303 4.83197 7.95759 4.87243 7.97433C4.91288 7.99107 4.95624 7.99968 5.00002 7.99965Z" fill="#A3A3BD"/>
<path d="M3 9.00098H2.33333C2.14924 9.00098 2 9.15021 2 9.33431V13.3343C2 13.5184 2.14924 13.6676 2.33333 13.6676H3C3.18409 13.6676 3.33333 13.5184 3.33333 13.3343V9.33431C3.33333 9.15021 3.18409 9.00098 3 9.00098Z" fill="#A3A3BD"/>
<path d="M13.6569 9.86171C13.4797 9.72976 13.2632 9.6613 13.0423 9.66736C12.9038 9.6687 12.766 9.68807 12.6325 9.725L9.89278 10.4148C10.0079 10.644 10.0542 10.9016 10.0262 11.1565C9.99821 11.4114 9.89709 11.6528 9.73502 11.8516C9.57296 12.0503 9.35687 12.198 9.1128 12.2767C8.86873 12.3554 8.60711 12.3619 8.35945 12.2953L6.7976 11.8767C6.71359 11.8526 6.6424 11.7965 6.59936 11.7204C6.55631 11.6444 6.54486 11.5545 6.56746 11.47C6.59006 11.3856 6.64492 11.3135 6.7202 11.2691C6.79549 11.2247 6.8852 11.2117 6.97 11.2328L8.53185 11.6514C8.70266 11.6972 8.88465 11.6732 9.03778 11.5848C9.19091 11.4963 9.30264 11.3507 9.34839 11.1799C9.39414 11.0091 9.37016 10.8271 9.28173 10.6739C9.1933 10.5208 9.04766 10.4091 8.87685 10.3633L6.2853 9.669H4V13.0023H4.60612L7.59897 14.1264C7.9362 14.2883 8.31041 14.3578 8.68331 14.3278C9.05622 14.2977 9.41444 14.1691 9.72135 13.9551L13.1641 11.6247C13.3708 11.5079 14 11.1517 14 10.5889C14.0028 10.4494 13.9733 10.3112 13.9138 10.1851C13.8542 10.0589 13.7663 9.94824 13.6569 9.86171Z" fill="#A3A3BD"/>
</svg>
