<svg width="16" height="16" viewBox="0 0 16 16" fill="none" xmlns="http://www.w3.org/2000/svg">
<path d="M14.6984 6.40632L8.81882 1.2872C8.60559 1.1021 8.33275 1.00012 8.05039 1C7.76803 0.999878 7.4951 1.10161 7.28171 1.28653L1.40411 6.40374C1.2242 6.55883 1.09603 6.76523 1.03679 6.99525C0.977553 7.22527 0.990083 7.46791 1.0727 7.6906C1.15532 7.9133 1.30407 8.1054 1.49899 8.24113C1.69392 8.37686 1.92569 8.44973 2.16322 8.44996H2.88327V12.6166C2.88365 12.9259 3.00668 13.2225 3.22539 13.4412C3.44411 13.6599 3.74063 13.7829 4.04994 13.7833H5.71661C6.02591 13.7829 6.32244 13.6599 6.54115 13.4412C6.75986 13.2225 6.8829 12.9259 6.88327 12.6166V10.95C6.88345 10.7868 6.91778 10.6254 6.98405 10.4763C7.05031 10.3272 7.14705 10.1936 7.26804 10.0841C7.38928 9.97367 7.5326 9.89029 7.68849 9.83944C7.84439 9.7886 8.00931 9.77146 8.17233 9.78915C8.46988 9.83505 8.74035 9.98824 8.93272 10.2198C9.1251 10.4514 9.22607 10.7454 9.21661 11.0463V12.6166C9.21698 12.9259 9.34002 13.2225 9.55873 13.4412C9.77744 13.6599 10.074 13.7829 10.3833 13.7833H12.0499C12.3592 13.7829 12.6558 13.6599 12.8745 13.4412C13.0932 13.2225 13.2162 12.9259 13.2166 12.6166V8.44997H13.9367C14.1739 8.44977 14.4054 8.37712 14.6001 8.24173C14.7949 8.10634 14.9437 7.91468 15.0265 7.69241C15.1094 7.47014 15.1224 7.22786 15.0637 6.99802C15.0051 6.76817 14.8776 6.56172 14.6984 6.40632Z" fill="#A3A3BD"/>
</svg>
