<svg width="16" height="16" viewBox="0 0 16 16" fill="none" xmlns="http://www.w3.org/2000/svg">
<path d="M13.3144 3.94241C12.707 3.33502 11.8981 3 11.0374 3C10.1767 3 9.3677 3.33502 8.76031 3.94241L8.20739 4.49533C8.16381 4.53891 8.093 4.53891 8.04942 4.49533L7.4965 3.94241C6.88911 3.33502 6.08016 3 5.21946 3C4.35875 3 3.54981 3.33502 2.94241 3.94241C2.33502 4.54981 2 5.35876 2 6.21946C2 7.08016 2.33502 7.88911 2.94241 8.4965L8.1284 13.6825L13.3144 8.4965C13.9218 7.88911 14.2568 7.08016 14.2568 6.21946C14.2568 5.35876 13.9218 4.55253 13.3144 3.94241ZM10.1331 8.82607H8.93463C8.87471 8.82607 8.82296 8.8751 8.82296 8.93774V10.1362H7.43113V8.93774C7.43113 8.87782 7.3821 8.82607 7.31946 8.82607H6.12101V7.43424H7.31946C7.37938 7.43424 7.43113 7.38521 7.43113 7.32257V6.12412H8.82296V7.32257C8.82296 7.38249 8.87198 7.43424 8.93463 7.43424H10.1331V8.82607Z" fill="#A3A3BD"/>
</svg>
