<svg width="149" height="23" viewBox="0 0 149 23" fill="none" xmlns="http://www.w3.org/2000/svg">
<circle cx="11.1599" cy="11.1364" r="11.1364" fill="url(#paint0_linear_38_37)"/>
<path fill-rule="evenodd" clip-rule="evenodd" d="M12.4339 9.79546C12.5883 9.35446 12.6723 8.88036 12.6723 8.38665C12.6723 6.03277 10.7641 4.12457 8.41019 4.12457C6.05631 4.12457 4.14812 6.03277 4.14812 8.38665C4.14812 10.7405 6.05631 12.6487 8.41019 12.6487C8.82713 12.6487 9.23009 12.5888 9.61094 12.4772C9.45654 12.9182 9.37259 13.3923 9.37259 13.8861C9.37259 16.2399 11.2808 18.1481 13.6347 18.1481C15.9885 18.1481 17.8967 16.2399 17.8967 13.8861C17.8967 11.5322 15.9885 9.62398 13.6347 9.62398C13.2177 9.62398 12.8148 9.68385 12.4339 9.79546Z" fill="url(#paint1_linear_38_37)"/>
<path d="M147.048 10.5151C146.808 9.49583 146.009 8.85632 144.67 8.85632C143.211 8.83633 142.212 9.63572 142.212 10.6949C142.212 11.5343 142.831 12.1138 144.15 12.4336L145.809 12.8333C147.648 13.2929 148.547 14.2522 148.547 15.7111C148.547 17.5697 147.048 18.8887 144.49 18.8887C142.172 18.8887 140.753 17.8295 140.473 15.911H141.892C142.112 17.0901 142.991 17.6896 144.47 17.6896C146.109 17.6896 147.168 16.9502 147.168 15.791C147.168 14.9317 146.568 14.3322 145.289 14.0324L143.631 13.6327C141.812 13.213 140.833 12.1938 140.833 10.7549C140.833 8.95624 142.392 7.65723 144.67 7.65723C146.808 7.67721 148.167 8.81635 148.407 10.5151H147.048Z" fill="white"/>
<path d="M136.716 18.6689V7.81714H138.075V18.6689H136.716ZM137.415 5.95855C136.876 5.95855 136.416 5.53887 136.416 5.01927C136.416 4.49966 136.876 4.06 137.415 4.06C137.955 4.06 138.415 4.49966 138.415 5.01927C138.415 5.53887 137.955 5.95855 137.415 5.95855Z" fill="white"/>
<path d="M132.799 10.5151C132.559 9.49583 131.76 8.85632 130.421 8.85632C128.962 8.83633 127.963 9.63572 127.963 10.6949C127.963 11.5343 128.582 12.1138 129.901 12.4336L131.56 12.8333C133.398 13.2929 134.298 14.2522 134.298 15.7111C134.298 17.5697 132.799 18.8887 130.241 18.8887C127.923 18.8887 126.504 17.8295 126.224 15.911H127.643C127.863 17.0901 128.742 17.6896 130.221 17.6896C131.86 17.6896 132.919 16.9502 132.919 15.791C132.919 14.9317 132.319 14.3322 131.04 14.0324L129.381 13.6327C127.563 13.213 126.584 12.1938 126.584 10.7549C126.584 8.95624 128.142 7.65723 130.421 7.65723C132.559 7.67721 133.918 8.81635 134.158 10.5151H132.799Z" fill="white"/>
<path d="M117.051 22.7457C116.771 22.7457 116.471 22.7257 116.291 22.7058L116.311 21.4867L116.971 21.5067C117.67 21.5067 118.37 21.4068 118.949 19.828L119.329 18.7688L115.332 7.81708H116.811L119.969 16.9102H120.069L123.246 7.81708H124.705L120.128 20.3476C119.529 21.9463 118.53 22.7457 117.051 22.7457Z" fill="white"/>
<path d="M113.274 4.19983V18.6688H111.895V4.19983H113.274Z" fill="white"/>
<path d="M100.603 15.6312C100.603 13.4328 102.382 12.5935 104.6 12.4136C105.32 12.3637 107.078 12.2637 107.598 12.2337V11.2145C107.598 9.75563 106.659 8.8763 104.96 8.8763C103.541 8.8763 102.582 9.5358 102.322 10.5151H100.903C101.123 8.79636 102.782 7.65723 105.04 7.65723C106.659 7.65723 108.957 8.3567 108.957 11.3344V18.6689H107.598V16.9901H107.518C107.078 17.9294 105.999 18.9087 104.181 18.9087C102.202 18.9087 100.603 17.7296 100.603 15.6312ZM101.962 15.6911C101.962 16.9702 102.982 17.6896 104.38 17.6896C106.379 17.6896 107.598 16.2507 107.598 14.532V13.3729L104.8 13.5727C102.882 13.7126 101.962 14.4521 101.962 15.6911Z" fill="white"/>
<path d="M91.2704 11.934V18.6688H89.8915V7.81708H91.2105V9.53577H91.3304C91.85 8.41662 92.9291 7.67719 94.5279 7.67719C96.7263 7.67719 98.2051 9.07612 98.2051 11.6542V18.6688H96.8462V11.7541C96.8462 9.99542 95.807 8.91624 94.1682 8.91624C92.4895 8.91624 91.2704 10.0554 91.2704 11.934Z" fill="white"/>
<path d="M77.381 18.6688H74.1434L79.1596 4.19983H83.0167L88.0129 18.6688H84.7953L83.7161 15.3314H78.4801L77.381 18.6688ZM79.2395 12.9931H82.9567L81.1381 7.45735H81.0382L79.2395 12.9931Z" fill="white"/>
<path d="M63.6914 18.8887C60.6337 18.8887 58.7151 16.6104 58.7151 13.3129C58.7151 10.0154 60.6737 7.65723 63.4915 7.65723C65.8497 7.65723 68.128 9.33595 68.128 13.0132V13.6527H60.0741C60.1341 16.1008 61.523 17.6696 63.6914 17.6696C65.1902 17.6696 66.0696 16.8902 66.4493 16.2107H67.9082C67.4285 17.7096 65.8897 18.8887 63.6914 18.8887ZM60.0941 12.4736H66.7291C66.7291 10.4351 65.4101 8.89629 63.5115 8.89629C61.543 8.89629 60.204 10.5151 60.0941 12.4736Z" fill="white"/>
<path d="M52.7797 18.6689V7.81711H54.0987V9.49583H54.1986C54.6383 8.39666 55.7974 7.65723 57.1364 7.65723C57.3562 7.65723 57.6759 7.65723 57.8358 7.67721V9.05616C57.7159 9.03618 57.3962 8.97622 57.0364 8.97622C55.3777 8.97622 54.1586 10.1154 54.1586 11.6942V18.6689H52.7797Z" fill="white"/>
<path d="M45.6051 18.8887C42.7673 18.8887 40.7888 16.6104 40.7888 13.2929C40.7888 9.95548 42.7673 7.65723 45.6051 7.65723C48.4429 7.65723 50.4015 9.95548 50.4015 13.2929C50.4015 16.6104 48.4429 18.8887 45.6051 18.8887ZM45.6051 17.6696C47.8234 17.6696 49.0425 15.6711 49.0425 13.2929C49.0425 10.9148 47.8234 8.89629 45.6051 8.89629C43.3668 8.89629 42.1477 10.9148 42.1477 13.2929C42.1477 15.6711 43.3668 17.6696 45.6051 17.6696Z" fill="white"/>
<path d="M35.9524 9.23602C35.7126 7.63724 34.4736 6.65798 32.7948 6.65798C30.5366 6.65798 29.0577 8.39666 29.0577 11.4344C29.0577 14.552 30.5565 16.2107 32.7749 16.2107C34.4336 16.2107 35.6527 15.2914 35.9524 13.7326L38.9901 13.7526C38.6504 16.4306 36.4121 18.8687 32.7349 18.8687C28.8578 18.8687 26 16.1508 26 11.4344C26 6.71793 28.9178 4 32.7349 4C36.0723 4 38.5904 5.91854 38.9901 9.23602H35.9524Z" fill="white"/>
<defs>
<linearGradient id="paint0_linear_38_37" x1="11.1599" y1="0" x2="11.1599" y2="22.2728" gradientUnits="userSpaceOnUse">
<stop stop-color="#A7BC6F"/>
<stop offset="1" stop-color="#4C5633"/>
</linearGradient>
<linearGradient id="paint1_linear_38_37" x1="11.0224" y1="4.12457" x2="11.0224" y2="18.1482" gradientUnits="userSpaceOnUse">
<stop/>
<stop offset="1" stop-color="#666666"/>
</linearGradient>
</defs>
</svg>
