<svg width="143" height="80" viewBox="0 0 143 80" fill="none" xmlns="http://www.w3.org/2000/svg">
<path d="M71.5042 14.156C70.9522 14.156 70.4682 13.988 70.0522 13.652C69.6442 13.316 69.3282 12.808 69.1042 12.128C68.8802 11.448 68.7682 10.596 68.7682 9.572C68.7682 8.548 68.8802 7.704 69.1042 7.04C69.3282 6.368 69.6442 5.868 70.0522 5.54C70.4682 5.212 70.9522 5.048 71.5042 5.048C72.0642 5.048 72.5482 5.216 72.9562 5.552C73.3642 5.88 73.6802 6.376 73.9042 7.04C74.1282 7.704 74.2402 8.548 74.2402 9.572C74.2402 10.596 74.1282 11.448 73.9042 12.128C73.6802 12.808 73.3642 13.316 72.9562 13.652C72.5482 13.988 72.0642 14.156 71.5042 14.156ZM71.5042 13.268C71.8402 13.268 72.1322 13.14 72.3802 12.884C72.6362 12.628 72.8322 12.228 72.9682 11.684C73.1122 11.132 73.1842 10.428 73.1842 9.572C73.1842 8.716 73.1122 8.02 72.9682 7.484C72.8322 6.94 72.6362 6.544 72.3802 6.296C72.1322 6.04 71.8402 5.912 71.5042 5.912C71.1762 5.912 70.8842 6.04 70.6282 6.296C70.3722 6.544 70.1722 6.94 70.0282 7.484C69.8922 8.02 69.8242 8.716 69.8242 9.572C69.8242 10.428 69.8922 11.132 70.0282 11.684C70.1722 12.228 70.3722 12.628 70.6282 12.884C70.8842 13.14 71.1762 13.268 71.5042 13.268Z" fill="white" fill-opacity="0.5"/>
<path d="M0.528 77.6834V77.0354C1.448 76.2274 2.204 75.4914 2.796 74.8274C3.396 74.1634 3.84 73.5474 4.128 72.9794C4.416 72.4034 4.56 71.8634 4.56 71.3594C4.56 71.0234 4.5 70.7234 4.38 70.4594C4.268 70.1954 4.092 69.9914 3.852 69.8474C3.612 69.6954 3.308 69.6194 2.94 69.6194C2.58 69.6194 2.244 69.7154 1.932 69.9074C1.628 70.0994 1.356 70.3434 1.116 70.6394L0.48 70.0154C0.832 69.6234 1.212 69.3114 1.62 69.0794C2.028 68.8474 2.512 68.7314 3.072 68.7314C3.6 68.7314 4.052 68.8394 4.428 69.0554C4.812 69.2634 5.108 69.5634 5.316 69.9554C5.532 70.3394 5.64 70.7914 5.64 71.3114C5.64 71.8954 5.492 72.4874 5.196 73.0874C4.908 73.6874 4.504 74.2994 3.984 74.9234C3.472 75.5394 2.872 76.1714 2.184 76.8194C2.416 76.8034 2.656 76.7874 2.904 76.7714C3.16 76.7474 3.4 76.7354 3.624 76.7354H6.06V77.6834H0.528Z" fill="white" fill-opacity="0.5"/>
<path d="M139.492 77.8394C139.036 77.8394 138.632 77.7834 138.28 77.6714C137.936 77.5594 137.632 77.4114 137.368 77.2274C137.104 77.0434 136.876 76.8434 136.684 76.6274L137.248 75.9194C137.504 76.1834 137.804 76.4194 138.148 76.6274C138.5 76.8274 138.924 76.9274 139.42 76.9274C139.772 76.9274 140.08 76.8634 140.344 76.7354C140.616 76.5994 140.828 76.4114 140.98 76.1714C141.132 75.9234 141.208 75.6314 141.208 75.2954C141.208 74.9434 141.12 74.6354 140.944 74.3714C140.776 74.1074 140.492 73.9034 140.092 73.7594C139.692 73.6074 139.152 73.5314 138.472 73.5314V72.6914C139.08 72.6914 139.56 72.6194 139.912 72.4754C140.264 72.3234 140.516 72.1194 140.668 71.8634C140.828 71.6074 140.908 71.3234 140.908 71.0114C140.908 70.5874 140.776 70.2514 140.512 70.0034C140.248 69.7474 139.884 69.6194 139.42 69.6194C139.068 69.6194 138.736 69.6994 138.424 69.8594C138.12 70.0194 137.844 70.2234 137.596 70.4714L137.008 69.7754C137.344 69.4714 137.708 69.2234 138.1 69.0314C138.5 68.8314 138.952 68.7314 139.456 68.7314C139.952 68.7314 140.392 68.8194 140.776 68.9954C141.168 69.1634 141.472 69.4114 141.688 69.7394C141.912 70.0674 142.024 70.4634 142.024 70.9274C142.024 71.4634 141.88 71.9074 141.592 72.2594C141.304 72.6114 140.928 72.8714 140.464 73.0394V73.0994C140.808 73.1794 141.12 73.3194 141.4 73.5194C141.68 73.7194 141.904 73.9714 142.072 74.2754C142.24 74.5794 142.324 74.9314 142.324 75.3314C142.324 75.8514 142.196 76.2994 141.94 76.6754C141.684 77.0514 141.344 77.3394 140.92 77.5394C140.496 77.7394 140.02 77.8394 139.492 77.8394Z" fill="white" fill-opacity="0.5"/>
<path fill-rule="evenodd" clip-rule="evenodd" d="M130.195 78.5549C130.195 46.0523 103.857 19.7329 71.3793 19.7329C38.9019 19.7329 12.5573 46.0523 12.5573 78.5549H38.1274C38.1274 60.188 53.0124 45.3093 71.3793 45.3093C89.7462 45.3093 104.625 60.188 104.625 78.5549H130.201H130.195Z" fill="#23232D"/>
<path fill-rule="evenodd" clip-rule="evenodd" d="M68.288 79.833C66.0275 79.2034 64.7242 76.8233 65.3538 74.5565L84.9423 21.2881L73.5834 76.9177C72.9348 79.1845 70.5736 80.4816 68.288 79.833Z" fill="#FDD020"/>
<path fill-rule="evenodd" clip-rule="evenodd" d="M38.1274 78.5549C38.1274 60.188 53.0124 45.3093 71.3793 45.3093C72.9534 45.3093 74.4898 45.4038 76.0072 45.6241L84.942 21.2881C80.5911 20.2618 76.045 19.7329 71.3793 19.7329C38.8956 19.7329 12.5573 46.0523 12.5573 78.5549H38.1274Z" fill="url(#paint0_linear_212_3649)"/>
<defs>
<linearGradient id="paint0_linear_212_3649" x1="66.399" y1="22.0895" x2="23.4406" y2="54.5352" gradientUnits="userSpaceOnUse">
<stop stop-color="#00CED3"/>
<stop offset="1" stop-color="#08559B"/>
</linearGradient>
</defs>
</svg>
